<?xml version="1.0" encoding="UTF-8"?>
<svg xmlns="http://www.w3.org/2000/svg" xmlns:xlink="http://www.w3.org/1999/xlink" width="4125" height="4125" viewBox="0 0 4125 4125">
<rect x="-412.5" y="-412.5" width="4950" height="4950" fill="rgb(100%, 81.639099%, 48.242188%)" fill-opacity="1"/>
<path fill-rule="nonzero" fill="rgb(95.3125%, 53.318787%, 10.205078%)" fill-opacity="1" d="M 2100.261719 617.761719 C 2099.890625 617.628906 2099.539062 617.511719 2099.179688 617.378906 C 1985.03125 586.75 1865.839844 580.230469 1748.171875 584.5 C 1728.289062 585.339844 1708.378906 586.039062 1688.570312 587.75 C 1643.140625 595.550781 1601.578125 616.800781 1561.671875 638.96875 C 1530.101562 656.449219 1498.769531 674.671875 1465.128906 687.960938 C 1428.941406 707.160156 1399.070312 736.628906 1375.800781 770.078125 C 1346.28125 812.179688 1325.398438 859.390625 1301.429688 904.679688 C 1299.25 908.671875 1296.78125 913.398438 1294.539062 917.398438 C 1291.160156 923.550781 1288.011719 929.03125 1284.371094 935.230469 C 1278.21875 945.589844 1271.5 956.128906 1264.78125 965.570312 C 1261.460938 970.550781 1257.339844 975.050781 1254.210938 980.078125 C 1251.371094 985.921875 1252.480469 992.601562 1251.449219 998.851562 C 1250.460938 1008.308594 1249.101562 1017.730469 1247.378906 1027.078125 C 1240.300781 1015.949219 1226.871094 1009.488281 1213.75 1010.980469 C 1194.421875 1013.050781 1177.78125 1025.410156 1165.421875 1039.769531 C 1157.710938 1048.800781 1151.921875 1059.449219 1148.878906 1070.921875 C 1145.480469 1079.539062 1141.761719 1088.03125 1137.851562 1096.421875 C 1135.011719 1102.441406 1131.570312 1109.429688 1128.339844 1115.75 C 1124.511719 1123.148438 1119.929688 1131.648438 1115.929688 1138.921875 C 1089.699219 1186.511719 1059.859375 1232.578125 1041.121094 1283.859375 C 1039.929688 1291.429688 1040.25 1299.199219 1039.191406 1306.820312 C 1036.308594 1335.140625 1030.308594 1363.03125 1028.96875 1391.660156 C 1027.390625 1420.101562 1031.859375 1449.429688 1045.660156 1474.628906 C 1085.890625 1574.699219 1122.160156 1676.851562 1142.960938 1783.019531 C 1148.601562 1811.191406 1152.730469 1839.640625 1156.179688 1868.148438 C 1161.820312 1901.390625 1163.550781 1936.089844 1178.058594 1967.078125 C 1187.078125 1986.988281 1203.589844 2003.859375 1224.46875 2011.089844 C 1237.820312 2015.800781 1252.019531 2017.261719 1265.898438 2019.671875 C 1280.351562 2021.871094 1294.851562 2023.78125 1309.28125 2026.101562 C 1314.679688 2026.988281 1321.269531 2028.148438 1327.089844 2029.359375 C 1354.421875 2034.929688 1382.371094 2044.25 1402.761719 2064.109375 C 1411.871094 2072.761719 1418.871094 2083.359375 1424.648438 2094.441406 C 1434.789062 2106.171875 1445.820312 2117.191406 1457.191406 2127.75 C 1475.058594 2143.789062 1494.800781 2159.28125 1518.378906 2165.609375 C 1534.339844 2170.011719 1552.410156 2167.359375 1565.53125 2156.929688 C 1572.101562 2151.820312 1578.148438 2145.578125 1580.941406 2137.570312 L 1582.191406 2138.308594 C 1582.191406 2138.308594 1591.269531 2150.480469 1592.5 2152.121094 C 1571.128906 2159.660156 1552.621094 2175.53125 1542.730469 2195.941406 C 1540.351562 2202.550781 1535.230469 2207.679688 1532.550781 2214.179688 C 1524.398438 2230.21875 1523.949219 2249.78125 1531.390625 2266.171875 C 1541.390625 2288.691406 1560.359375 2305.46875 1579.109375 2320.71875 C 1593.71875 2332.601562 1609.441406 2343.121094 1623.648438 2355.488281 C 1678.429688 2414.128906 1733.738281 2472.261719 1788.320312 2531.101562 C 1805.558594 2561.859375 1826.738281 2591.339844 1855.230469 2612.640625 C 1874.890625 2627.339844 1899.710938 2636.78125 1924.511719 2633.480469 C 1940.820312 2631.628906 1955.878906 2624.300781 1969.410156 2615.300781 C 1977.109375 2610.609375 1987.410156 2609.109375 1995.261719 2614.339844 C 2007.769531 2622.378906 2015.191406 2635.898438 2022.328125 2648.5 C 2031.980469 2666.578125 2039.910156 2685.550781 2050.371094 2703.191406 C 2069.320312 2740.871094 2083.25 2780.929688 2093.519531 2821.800781 C 2095.78125 2830.960938 2098.160156 2841.078125 2100.128906 2850.691406 C 2106.070312 2879.058594 2110.449219 2907.800781 2113.808594 2936.820312 C 2115.109375 2946.789062 2115.75 2956.921875 2117.140625 2966.820312 C 2118.710938 2970.359375 2120.46875 2973.789062 2123.859375 2975.910156 C 2143.410156 2992.269531 2169.339844 2997.640625 2194.078125 2999.941406 C 2222.691406 3002.878906 2252.109375 3001.648438 2279.820312 3010.410156 C 2291.808594 3014.269531 2303.128906 3020.808594 2311.589844 3030.25 C 2308.710938 3057.710938 2298.660156 3084.761719 2302.339844 3112.660156 C 2304.410156 3130.621094 2314.578125 3147.234375 2329.390625 3157.539062 C 2335 3161.703125 2339.019531 3167.683594 2343.949219 3172.621094 C 2362.109375 3192.941406 2381.011719 3213.816406 2390.890625 3239.648438 C 2396.820312 3254.984375 2397 3272.847656 2389.25 3287.59375 C 2386.589844 3293.554688 2382.089844 3298.394531 2378.828125 3303.960938 C 2369.589844 3324.191406 2368.230469 3347.820312 2375.390625 3368.90625 C 2384.660156 3397.039062 2404.089844 3420.097656 2422.539062 3442.675781 C 2439.378906 3463.285156 2457.320312 3483.902344 2466.941406 3509.09375 C 2477.070312 3531.804688 2497.628906 3549.8125 2521.949219 3555.605469 C 2549.320312 3562.589844 2579.269531 3554.59375 2600.949219 3536.894531 C 2622.890625 3528.5625 2638.289062 3509.996094 2654.488281 3493.925781 C 2658.230469 3490.191406 2663.191406 3485.503906 2667.929688 3481.925781 C 2675.148438 3476.238281 2684.960938 3471.921875 2694.070312 3475.621094 C 2701.378906 3478.097656 2706.828125 3483.761719 2712.761719 3488.359375 C 2746.800781 3508.378906 2783.308594 3526.359375 2822.949219 3531.261719 C 2851.660156 3534.894531 2881.699219 3529.636719 2906.679688 3514.726562 C 2910.941406 3512.027344 2915.148438 3509.398438 2920.019531 3507.9375 C 2941.148438 3499.480469 2957.960938 3482.496094 2968.601562 3462.628906 C 2987.238281 3428.996094 2992.75 3389.585938 3013.328125 3356.90625 C 3018.789062 3348.085938 3025.949219 3340.480469 3033.71875 3333.691406 C 3061.429688 3299.332031 3083.539062 3259.753906 3094.351562 3216.757812 C 3102.390625 3184.351562 3102.558594 3148.851562 3088.441406 3118.058594 C 3084.539062 3110.019531 3080.429688 3101.78125 3074.378906 3095.140625 C 3041.660156 3065.410156 3008.621094 3034.519531 2986.820312 2995.539062 C 2975.78125 2975.910156 2968.359375 2954.230469 2965.449219 2931.871094 C 2960.941406 2910.851562 2947.941406 2892.261719 2930.730469 2879.589844 C 2903 2858.429688 2868.058594 2849.640625 2840.28125 2828.601562 C 2826.058594 2818 2815.628906 2802.25 2812.621094 2784.660156 C 2803.878906 2751.640625 2782.660156 2724.179688 2764.210938 2696.109375 C 2754.078125 2680.621094 2744.429688 2664.441406 2739.308594 2646.519531 C 2742.929688 2619.980469 2757.378906 2596.71875 2769.628906 2573.550781 C 2782.640625 2549.511719 2795.191406 2523.648438 2795.050781 2495.691406 C 2795.128906 2482.050781 2791.660156 2468.660156 2786.460938 2456.140625 C 2767.21875 2392.199219 2737.480469 2331.480469 2724.511719 2265.679688 C 2723.058594 2258.019531 2721.96875 2251.261719 2721.039062 2243.488281 C 2716.550781 2207.609375 2720.109375 2170.179688 2735.21875 2137.050781 C 2738.691406 2128.488281 2744.339844 2120.949219 2746.808594 2111.988281 C 2786.039062 2001.050781 2819.789062 1887.238281 2832.851562 1769.929688 C 2836.871094 1733.339844 2839.03125 1696.480469 2838.179688 1659.671875 C 2827.769531 1581.359375 2814.429688 1502.578125 2785.191406 1428.789062 C 2763.839844 1374.78125 2733.089844 1323.960938 2691.699219 1282.941406 C 2659.78125 1249.421875 2636.128906 1206.46875 2631.421875 1159.929688 C 2629.089844 1138.699219 2631.238281 1117.191406 2636.371094 1096.519531 C 2644.261719 1057.410156 2639.039062 1016.210938 2623.480469 979.609375 C 2603.421875 932.011719 2568.949219 891.859375 2530.058594 858.46875 C 2500.988281 833.578125 2468.890625 812.390625 2435.261719 794.179688 C 2326.140625 730.75 2215.578125 669.300781 2100.261719 617.761719 Z M 2400.789062 1017.328125 L 2400.871094 1017.511719 C 2405.28125 1030.371094 2403.28125 1044.890625 2399.238281 1057.269531 C 2401.640625 1044.128906 2402.351562 1030.628906 2400.800781 1017.339844 Z M 2465.421875 1094.398438 C 2465.078125 1095.539062 2464.730469 1096.671875 2464.390625 1097.800781 C 2456.378906 1127.21875 2465.941406 1161.789062 2490.589844 1180.539062 C 2494.398438 1183.359375 2498.511719 1185.800781 2502.878906 1187.621094 C 2499.808594 1195.710938 2496.710938 1203.789062 2493.511719 1211.820312 C 2481.558594 1198.890625 2462.109375 1195.140625 2445.371094 1198.878906 C 2450.738281 1182.058594 2457.421875 1164.601562 2454.929688 1146.648438 C 2453.351562 1134.5 2444.421875 1124.050781 2432.898438 1120.089844 C 2425.96875 1117.78125 2418.460938 1115.75 2411.148438 1117.03125 C 2403.898438 1119.738281 2393.789062 1120.5 2388.910156 1113.230469 C 2382.898438 1103.660156 2386.078125 1091.171875 2391.839844 1082.25 C 2394.808594 1093.851562 2399.851562 1106.910156 2411.648438 1112.011719 C 2423 1116.800781 2435.191406 1111.25 2445.109375 1105.601562 C 2451.839844 1101.808594 2458.359375 1097.589844 2465.421875 1094.398438 Z M 2492.101562 1575.601562 C 2493.171875 1576.589844 2494.230469 1577.570312 2495.300781 1578.558594 C 2513.488281 1594.679688 2534.328125 1607.570312 2556.140625 1618.171875 C 2555.539062 1619.78125 2556.199219 1624.570312 2553.429688 1623.21875 C 2540.160156 1617.851562 2528.988281 1608.371094 2515.71875 1602.929688 C 2506.511719 1598.910156 2495.859375 1596.660156 2486.070312 1599.941406 C 2488.980469 1592.101562 2491.28125 1583.949219 2492.101562 1575.601562 Z M 2625.550781 2080.5 C 2625.558594 2081.691406 2625.558594 2082.871094 2625.570312 2084.050781 C 2625.230469 2086.410156 2626.460938 2089.5 2625.339844 2091.410156 C 2623.699219 2092.378906 2620.019531 2096.78125 2622 2092.429688 C 2623.191406 2088.460938 2624.390625 2084.488281 2625.550781 2080.5 Z M 2629.011719 2403.199219 C 2630.898438 2404.328125 2632.648438 2408.53125 2628.789062 2407.378906 C 2624.988281 2407.539062 2621.191406 2407.699219 2617.378906 2407.859375 C 2618.570312 2403.019531 2624.789062 2400.179688 2629.011719 2403.199219 Z M 2601.21875 3109.648438 C 2599.78125 3112 2594.539062 3110.101562 2596.929688 3108.46875 C 2598.328125 3108.910156 2600.011719 3108.789062 2601.21875 3109.648438 Z M 2804.691406 3308.96875 L 2804.75 3309.132812 C 2807.71875 3318.121094 2812.808594 3326.761719 2820.738281 3332.207031 C 2812.769531 3336.835938 2803.351562 3340.6875 2793.988281 3339.050781 C 2789.898438 3338.378906 2791.320312 3333.164062 2791.871094 3330.394531 C 2793.230469 3327.0625 2796.671875 3324.855469 2798.429688 3321.628906 C 2801.140625 3317.753906 2803.320312 3313.492188 2804.699219 3308.96875 "/>
<path fill-rule="nonzero" fill="rgb(87.109375%, 37.255859%, 4.704285%)" fill-opacity="1" d="M 1185.410156 1213.089844 C 1169.148438 1215.800781 1140.691406 1249.671875 1127.820312 1276.78125 C 1114.941406 1303.878906 1117.660156 1324.210938 1109.519531 1350.640625 C 1101.390625 1377.070312 1082.421875 1409.589844 1064.808594 1459.050781 C 1060.871094 1470.109375 1057.03125 1482.171875 1053.300781 1494.359375 C 1090.371094 1588.148438 1123.519531 1683.78125 1142.960938 1783.019531 C 1148.601562 1811.191406 1152.730469 1839.640625 1156.179688 1868.148438 C 1161.820312 1901.398438 1163.550781 1936.089844 1178.058594 1967.078125 C 1187.078125 1986.988281 1203.589844 2003.859375 1224.46875 2011.089844 C 1237.820312 2015.800781 1252.011719 2017.261719 1265.890625 2019.671875 C 1280.339844 2021.859375 1294.851562 2023.78125 1309.28125 2026.109375 C 1314.679688 2026.988281 1321.269531 2028.148438 1327.089844 2029.359375 C 1354.421875 2034.921875 1382.359375 2044.25 1402.761719 2064.121094 C 1411.871094 2072.761719 1418.871094 2083.359375 1424.648438 2094.441406 C 1434.789062 2106.171875 1445.808594 2117.191406 1457.191406 2127.75 C 1475.050781 2143.78125 1494.800781 2159.28125 1518.378906 2165.621094 C 1534.339844 2170.019531 1552.410156 2167.371094 1565.53125 2156.941406 C 1572.101562 2151.820312 1578.148438 2145.578125 1580.941406 2137.570312 L 1582.199219 2138.300781 C 1582.199219 2138.300781 1591.269531 2150.480469 1592.5 2152.121094 C 1571.140625 2159.671875 1552.621094 2175.53125 1542.730469 2195.949219 C 1540.351562 2202.550781 1535.238281 2207.679688 1532.550781 2214.179688 C 1524.410156 2230.230469 1523.949219 2249.78125 1531.390625 2266.171875 C 1541.390625 2288.699219 1560.351562 2305.46875 1579.101562 2320.71875 C 1593.710938 2332.609375 1609.441406 2343.121094 1623.640625 2355.488281 C 1678.429688 2414.128906 1733.75 2472.269531 1788.320312 2531.101562 C 1805.558594 2561.871094 1826.75 2591.328125 1855.230469 2612.640625 C 1874.890625 2627.339844 1899.71875 2636.78125 1924.511719 2633.480469 C 1940.828125 2631.628906 1955.890625 2624.300781 1969.410156 2615.300781 C 1977.121094 2610.609375 1987.410156 2609.101562 1995.261719 2614.339844 C 2007.769531 2622.378906 2015.191406 2635.890625 2022.328125 2648.5 C 2031.96875 2666.570312 2039.921875 2685.550781 2050.371094 2703.191406 C 2069.320312 2740.871094 2083.25 2780.929688 2093.519531 2821.800781 C 2095.78125 2830.960938 2098.160156 2841.078125 2100.140625 2850.691406 C 2106.070312 2879.058594 2110.449219 2907.800781 2113.820312 2936.828125 C 2115.109375 2946.800781 2115.761719 2956.910156 2117.140625 2966.820312 C 2118.710938 2970.359375 2120.46875 2973.800781 2123.859375 2975.910156 C 2143.410156 2992.269531 2169.339844 2997.640625 2194.089844 2999.929688 C 2222.691406 3002.878906 2252.109375 3001.648438 2279.820312 3010.410156 C 2291.808594 3014.28125 2303.128906 3020.800781 2311.589844 3030.25 C 2308.710938 3057.710938 2298.660156 3084.761719 2302.339844 3112.660156 C 2304.410156 3130.621094 2314.578125 3147.238281 2329.390625 3157.546875 C 2335 3161.707031 2339.019531 3167.679688 2343.949219 3172.617188 C 2362.121094 3192.9375 2381.011719 3213.8125 2390.878906 3239.648438 C 2396.820312 3254.984375 2397 3272.84375 2389.25 3287.589844 C 2386.578125 3293.550781 2382.089844 3298.394531 2378.828125 3303.960938 C 2369.589844 3324.191406 2368.230469 3347.824219 2375.390625 3368.910156 C 2384.660156 3397.039062 2404.089844 3420.097656 2422.539062 3442.675781 C 2439.378906 3463.285156 2457.320312 3483.898438 2466.941406 3509.09375 C 2477.070312 3531.804688 2497.628906 3549.8125 2521.949219 3555.605469 C 2549.320312 3562.589844 2579.269531 3554.597656 2600.949219 3536.898438 C 2622.878906 3528.566406 2638.289062 3510 2654.488281 3493.929688 C 2658.238281 3490.191406 2663.191406 3485.507812 2667.929688 3481.929688 C 2675.148438 3476.242188 2684.960938 3471.921875 2694.070312 3475.621094 C 2701.378906 3478.097656 2706.828125 3483.761719 2712.769531 3488.359375 C 2746.800781 3508.378906 2783.308594 3526.359375 2822.949219 3531.265625 C 2851.671875 3534.898438 2881.699219 3529.636719 2906.679688 3514.726562 C 2910.941406 3512.03125 2915.148438 3509.394531 2920.019531 3507.933594 C 2941.148438 3499.476562 2957.960938 3482.496094 2968.601562 3462.625 C 2987.238281 3428.996094 2992.75 3389.585938 3013.328125 3356.902344 C 3018.789062 3348.085938 3025.949219 3340.484375 3033.71875 3333.691406 C 3044.261719 3320.621094 3053.628906 3306.578125 3062.238281 3292.09375 C 3058.601562 3272.433594 3054.328125 3254.484375 3049.410156 3239.742188 C 3034.078125 3193.742188 3016.828125 3168.828125 2994.308594 3157.804688 C 2971.789062 3146.785156 2944 3149.660156 2928.191406 3173.617188 C 2912.371094 3197.570312 2908.539062 3242.609375 2888.421875 3278.546875 C 2868.300781 3314.480469 2831.890625 3341.3125 2813.199219 3347.539062 C 2801.621094 3351.398438 2797.089844 3346.886719 2794.339844 3339.027344 C 2794.230469 3339.007812 2794.109375 3339.082031 2793.988281 3339.0625 C 2789.898438 3338.394531 2791.328125 3333.195312 2791.878906 3330.421875 C 2791.878906 3330.414062 2791.878906 3330.40625 2791.878906 3330.402344 C 2791.328125 3327.585938 2790.789062 3324.796875 2790.199219 3321.675781 C 2786.839844 3303.949219 2781.101562 3282.867188 2760.488281 3278.078125 C 2739.890625 3273.285156 2704.429688 3284.785156 2680 3285.261719 C 2655.558594 3285.742188 2642.140625 3275.199219 2653.160156 3259.867188 C 2664.179688 3244.535156 2699.640625 3224.410156 2738.449219 3201.890625 C 2777.261719 3179.371094 2819.429688 3154.460938 2835.71875 3125.234375 C 2852.011719 3096.011719 2842.421875 3062.46875 2824.699219 3061.511719 C 2806.96875 3060.550781 2781.089844 3092.179688 2762.890625 3095.53125 C 2744.679688 3098.878906 2734.140625 3073.960938 2716.410156 3056.71875 C 2698.679688 3039.46875 2673.769531 3029.878906 2654.601562 3017.898438 C 2635.441406 3005.921875 2622.03125 2991.550781 2603.820312 2993.46875 C 2585.609375 2995.378906 2562.621094 3013.601562 2552.070312 3013.121094 C 2541.53125 3012.640625 2543.449219 2993.46875 2552.070312 2970.46875 C 2560.699219 2947.46875 2576.03125 2920.648438 2583.691406 2884.230469 C 2591.359375 2847.820312 2591.359375 2801.820312 2594.230469 2761.578125 C 2597.109375 2721.328125 2602.859375 2686.828125 2591.359375 2645.621094 C 2579.871094 2604.410156 2551.109375 2556.5 2538.660156 2556.5 C 2526.199219 2556.5 2530.03125 2604.410156 2529.070312 2645.621094 C 2528.109375 2686.828125 2522.371094 2721.320312 2510.871094 2757.738281 C 2499.371094 2794.148438 2482.109375 2832.480469 2472.53125 2837.269531 C 2462.949219 2842.058594 2461.039062 2813.320312 2447.621094 2782.660156 C 2434.210938 2751.988281 2409.289062 2719.398438 2396.691406 2687.230469 C 2384.078125 2655.050781 2383.789062 2623.289062 2391.460938 2578.25 C 2399.121094 2533.210938 2414.738281 2474.898438 2404.351562 2446.230469 C 2393.960938 2417.550781 2357.539062 2418.519531 2335.980469 2409.410156 C 2314.421875 2400.308594 2307.71875 2381.140625 2294.300781 2364.371094 C 2280.878906 2347.609375 2260.761719 2333.230469 2242.550781 2309.75 C 2224.351562 2286.269531 2208.050781 2253.691406 2200.390625 2230.691406 C 2192.71875 2207.699219 2193.679688 2194.28125 2202.789062 2191.398438 C 2211.890625 2188.53125 2229.128906 2196.199219 2240.148438 2192.371094 C 2251.171875 2188.53125 2255.96875 2173.191406 2265.550781 2154.03125 C 2275.128906 2134.859375 2289.511719 2111.871094 2302.921875 2110.429688 C 2316.339844 2108.988281 2328.800781 2129.109375 2334.070312 2149.238281 C 2339.339844 2169.359375 2337.421875 2189.480469 2329.75 2209.128906 C 2322.078125 2228.769531 2308.671875 2247.941406 2315.378906 2258.011719 C 2322.089844 2268.070312 2348.921875 2269.019531 2377.660156 2255.128906 C 2406.410156 2241.230469 2437.078125 2212.488281 2439.960938 2175.121094 C 2442.828125 2137.738281 2417.910156 2091.738281 2391.558594 2060.601562 C 2365.210938 2029.460938 2337.421875 2013.171875 2313.941406 2017.480469 C 2290.460938 2021.789062 2271.300781 2046.710938 2244.949219 2046.710938 C 2218.589844 2046.710938 2185.050781 2021.789062 2157.261719 2015.078125 C 2129.46875 2008.371094 2107.441406 2019.871094 2091.148438 2042.390625 C 2074.859375 2064.910156 2064.308594 2098.449219 2053.769531 2128.160156 C 2043.230469 2157.859375 2032.691406 2183.730469 2018.308594 2204.339844 C 2003.941406 2224.941406 1985.738281 2240.269531 1975.679688 2233.089844 C 1965.621094 2225.898438 1963.699219 2196.191406 1962.738281 2171.28125 C 1961.78125 2146.359375 1961.78125 2126.238281 1959.378906 2110.910156 C 1956.988281 2095.570312 1952.191406 2085.03125 1942.609375 2086.949219 C 1933.03125 2088.871094 1918.660156 2103.238281 1901.890625 2105.160156 C 1885.121094 2107.078125 1865.960938 2096.53125 1850.148438 2079.769531 C 1834.328125 2063 1821.878906 2039.988281 1845.351562 2027.058594 C 1868.828125 2014.121094 1928.238281 2011.25 1968.480469 2007.421875 C 2008.730469 2003.578125 2029.820312 1998.789062 2034.128906 1977.230469 C 2038.449219 1955.671875 2025.980469 1917.339844 2010.648438 1909.671875 C 1995.320312 1902.011719 1977.121094 1925.011719 1948.371094 1937.949219 C 1919.621094 1950.878906 1880.320312 1953.761719 1854.929688 1939.859375 C 1829.539062 1925.96875 1818.039062 1895.300781 1829.058594 1888.589844 C 1840.078125 1881.878906 1873.621094 1899.128906 1890.390625 1886.679688 C 1907.160156 1874.21875 1907.160156 1832.058594 1921.53125 1787.019531 C 1935.910156 1741.980469 1964.660156 1694.070312 1958.910156 1670.109375 C 1953.160156 1646.148438 1912.910156 1646.148438 1879.371094 1642.320312 C 1845.828125 1638.488281 1819 1630.820312 1794.078125 1629.871094 C 1769.171875 1628.910156 1746.171875 1634.648438 1707.839844 1634.648438 C 1669.511719 1634.648438 1615.851562 1628.898438 1569.851562 1620.28125 C 1523.859375 1611.648438 1485.53125 1600.148438 1457.289062 1589.628906 C 1429.050781 1579.109375 1410.898438 1569.570312 1399.121094 1541.078125 C 1387.328125 1512.589844 1381.921875 1465.160156 1372.429688 1432.640625 C 1362.941406 1400.109375 1349.398438 1382.488281 1339.230469 1355.378906 C 1329.070312 1328.28125 1322.289062 1291.691406 1310.089844 1282.199219 C 1297.890625 1272.71875 1280.28125 1290.339844 1263.339844 1307.960938 C 1246.398438 1325.570312 1230.140625 1343.191406 1220.648438 1370.300781 C 1211.160156 1397.398438 1208.449219 1433.988281 1201.671875 1440.089844 C 1194.898438 1446.179688 1184.058594 1421.789062 1177.960938 1404.851562 C 1171.859375 1387.910156 1170.511719 1378.421875 1176.609375 1356.738281 C 1182.699219 1335.058594 1196.261719 1301.179688 1201 1270.011719 C 1205.738281 1238.839844 1201.679688 1210.390625 1185.421875 1213.101562 Z M 2596.929688 3108.46875 C 2598.328125 3108.910156 2600 3108.789062 2601.21875 3109.648438 C 2599.78125 3112 2594.539062 3110.101562 2596.929688 3108.46875 "/>
<path fill-rule="nonzero" fill="rgb(87.109375%, 37.255859%, 4.704285%)" fill-opacity="1" d="M 1480.171875 1373.671875 C 1463.230469 1381.128906 1464.578125 1373 1462.550781 1357.410156 C 1460.519531 1341.828125 1455.101562 1318.789062 1459.839844 1287.621094 C 1464.578125 1256.449219 1479.488281 1217.148438 1490.328125 1182.589844 C 1501.171875 1148.039062 1507.949219 1118.21875 1530.988281 1097.21875 C 1554.03125 1076.210938 1593.328125 1064.011719 1627.878906 1066.050781 C 1662.441406 1068.078125 1692.25 1084.339844 1729.519531 1097.21875 C 1766.789062 1110.089844 1811.511719 1119.578125 1837.941406 1138.550781 C 1864.359375 1157.519531 1872.488281 1185.980469 1862.328125 1210.371094 C 1852.171875 1234.769531 1823.710938 1255.101562 1799.308594 1275.421875 C 1774.921875 1295.75 1754.589844 1316.078125 1737.648438 1312.691406 C 1720.710938 1309.300781 1707.160156 1282.199219 1705.128906 1257.808594 C 1703.101562 1233.410156 1712.578125 1211.730469 1700.378906 1190.71875 C 1688.191406 1169.71875 1654.308594 1149.390625 1638.050781 1160.910156 C 1621.78125 1172.429688 1623.140625 1215.800781 1631.269531 1253.738281 C 1639.398438 1291.691406 1654.308594 1324.210938 1651.601562 1340.46875 C 1648.890625 1356.738281 1628.558594 1356.738281 1611.621094 1350.640625 C 1594.679688 1344.539062 1581.128906 1332.339844 1556.730469 1337.761719 C 1532.339844 1343.179688 1497.109375 1366.21875 1480.171875 1373.671875 "/>
<path fill-rule="nonzero" fill="rgb(98.4375%, 62.304688%, 25.097656%)" fill-opacity="1" d="M 2573.628906 1395.078125 C 2559.738281 1422.871094 2553.988281 1469.820312 2553.03125 1508.628906 C 2552.070312 1547.441406 2555.898438 1578.109375 2555.421875 1602.058594 C 2554.941406 1626.019531 2550.148438 1643.269531 2556.859375 1672.5 C 2563.570312 1701.71875 2581.78125 1742.929688 2589.441406 1773.589844 C 2597.109375 1804.261719 2594.230469 1824.378906 2582.25 1840.191406 C 2570.28125 1856 2549.191406 1867.5 2538.648438 1886.191406 C 2528.109375 1904.871094 2528.109375 1930.75 2536.261719 1944.160156 C 2544.398438 1957.578125 2560.691406 1958.539062 2587.050781 1936.980469 C 2613.398438 1915.410156 2649.808594 1871.328125 2660.351562 1821.03125 C 2670.890625 1770.71875 2655.558594 1714.179688 2659.871094 1692.621094 C 2664.191406 1671.058594 2688.140625 1684.46875 2699.160156 1704.121094 C 2710.179688 1723.761719 2708.269531 1749.640625 2716.410156 1753.949219 C 2724.558594 1758.261719 2742.761719 1741.011719 2748.988281 1711.300781 C 2755.21875 1681.601562 2749.46875 1639.429688 2735.101562 1613.558594 C 2720.71875 1587.691406 2697.730469 1578.109375 2680.480469 1554.148438 C 2663.230469 1530.191406 2651.730469 1491.859375 2644.539062 1455.449219 C 2637.351562 1419.03125 2634.480469 1384.539062 2622.019531 1371.601562 C 2609.558594 1358.660156 2587.519531 1367.289062 2573.628906 1395.078125 "/>
<path fill-rule="nonzero" fill="rgb(98.4375%, 62.304688%, 25.097656%)" fill-opacity="1" d="M 1958.898438 794.71875 C 1950.28125 804.789062 1953.148438 808.621094 1962.261719 827.308594 C 1971.359375 845.988281 1986.691406 879.53125 1991.011719 910.679688 C 1995.320312 941.820312 1988.609375 970.570312 2000.109375 976.789062 C 2011.609375 983.019531 2041.308594 966.730469 2068.628906 940.378906 C 2095.941406 914.03125 2120.851562 877.609375 2143.371094 881.449219 C 2165.890625 885.28125 2186.011719 929.359375 2203.738281 966.25 C 2221.46875 1003.148438 2236.800781 1032.851562 2265.550781 1041.480469 C 2294.300781 1050.101562 2336.460938 1037.640625 2355.148438 1049.621094 C 2373.828125 1061.601562 2369.039062 1098.019531 2373.351562 1099.449219 C 2377.671875 1100.890625 2391.078125 1067.351562 2400.179688 1044.351562 C 2409.289062 1021.351562 2414.078125 1008.898438 2403.539062 993.089844 C 2393 977.269531 2367.121094 958.109375 2335.980469 929.359375 C 2304.839844 900.609375 2268.421875 862.28125 2243.988281 838.328125 C 2219.550781 814.371094 2207.089844 804.789062 2177.390625 811.019531 C 2147.679688 817.238281 2100.730469 839.28125 2069.578125 832.101562 C 2038.441406 824.910156 2023.109375 788.5 2005.378906 778.429688 C 1987.648438 768.371094 1967.53125 784.660156 1958.898438 794.71875 "/>
<path fill-rule="nonzero" fill="rgb(51.756287%, 15.696716%, 0.392151%)" fill-opacity="1" d="M 2470.890625 3533.160156 C 2458.210938 3524.363281 2450.398438 3513.253906 2441.910156 3491.972656 C 2433.96875 3472.054688 2417.070312 3447.191406 2388.519531 3413.398438 C 2338.691406 3354.429688 2337.898438 3350.402344 2364.910156 3292.679688 L 2382.628906 3254.789062 L 2371.691406 3229.449219 C 2365.671875 3215.511719 2349.699219 3191.757812 2336.199219 3176.660156 C 2322.699219 3161.5625 2309.269531 3146.414062 2306.371094 3143 C 2303.460938 3139.585938 2295.390625 3132.65625 2288.441406 3127.601562 C 2277.359375 3119.539062 2262.800781 3087.570312 2266.519531 3079.46875 C 2267.230469 3077.839844 2275.03125 3067.539062 2283.789062 3056.550781 C 2309.539062 3024.21875 2300.550781 3016.210938 2232.710938 3011.039062 C 2160.039062 3005.488281 2139.769531 3002.210938 2117.191406 2992.328125 C 2097.5 2983.710938 2094.78125 2980.761719 2090.898438 2963.851562 C 2088.519531 2953.46875 2087.78125 2932.589844 2089.269531 2917.441406 C 2092.460938 2884.839844 2089.988281 2827.828125 2085.070312 2820.730469 C 2060.941406 2785.890625 2051.890625 2764.140625 2047.828125 2731.210938 C 2042.871094 2691.050781 2027.140625 2655.289062 2005.511719 2635.039062 C 1993.109375 2623.421875 1990.46875 2622.578125 1978.609375 2626.519531 C 1971.378906 2628.921875 1961.738281 2634.671875 1957.191406 2639.289062 C 1952.101562 2644.46875 1937.960938 2647.878906 1920.429688 2648.179688 C 1891.960938 2648.660156 1891.921875 2648.640625 1863.28125 2627.488281 C 1829.03125 2602.199219 1799.621094 2569.078125 1772.621094 2525.398438 C 1761.691406 2507.71875 1745.828125 2487.570312 1737.378906 2480.621094 C 1695.289062 2446.019531 1676.519531 2427.539062 1650.46875 2395.070312 C 1633.660156 2374.121094 1607.019531 2348.171875 1585.300781 2331.570312 C 1492.320312 2260.539062 1488.789062 2255.769531 1503.339844 2220.710938 C 1521.640625 2176.601562 1521.269531 2175.5 1481.46875 2157.300781 C 1444.070312 2140.199219 1435.730469 2132.039062 1405.121094 2082.519531 C 1382.039062 2045.191406 1364.328125 2039.339844 1231.351562 2025.179688 C 1201.398438 2021.988281 1202.058594 2022.628906 1146.921875 1944.511719 C 1122.890625 1910.480469 1120.359375 1891.71875 1140.078125 1893.808594 C 1155.789062 1895.460938 1155.699219 1887 1139.671875 1854.570312 C 1131.589844 1838.21875 1124.21875 1813.839844 1123.300781 1800.398438 C 1122.371094 1786.960938 1120.25 1772.269531 1118.601562 1767.75 C 1116.941406 1763.230469 1116.511719 1757.429688 1117.628906 1754.859375 C 1120.71875 1747.808594 1108.171875 1679.828125 1096.941406 1642.761719 C 1091.480469 1624.75 1087.640625 1608.601562 1088.398438 1606.878906 C 1089.148438 1605.148438 1082.660156 1591.789062 1073.96875 1577.191406 C 1036.359375 1513.980469 1000.890625 1417.671875 1005.351562 1390.878906 C 1007.140625 1380.171875 1009.820312 1357.851562 1011.320312 1341.28125 C 1012.820312 1324.699219 1015.960938 1306.820312 1018.300781 1301.550781 C 1020.628906 1296.28125 1021.21875 1290.058594 1019.609375 1287.71875 C 1017.988281 1285.378906 1018.859375 1272.699219 1021.550781 1259.539062 C 1026.738281 1234.101562 1048.898438 1197.679688 1063.921875 1189.851562 C 1074.5 1184.351562 1108.511719 1105.121094 1106.980469 1089.558594 C 1105.980469 1079.371094 1108.339844 1075.449219 1121.859375 1064.820312 C 1130.699219 1057.871094 1139.328125 1048.96875 1141.050781 1045.050781 C 1147.308594 1030.75 1216.480469 963.859375 1232.710938 956.398438 C 1246.910156 949.878906 1252.371094 943.148438 1269.449219 911.058594 C 1280.488281 890.339844 1294.871094 867.058594 1301.429688 859.328125 C 1309.148438 850.238281 1316.761719 834.121094 1323 813.699219 C 1328.289062 796.339844 1334.421875 779.46875 1336.621094 776.210938 C 1338.808594 772.949219 1363.628906 748.558594 1391.75 722.011719 C 1419.878906 695.449219 1446.519531 669.011719 1450.941406 663.230469 C 1455.359375 657.460938 1463.570312 653.21875 1469.191406 653.820312 C 1482.488281 655.21875 1542.699219 622.910156 1578.398438 595.199219 C 1600.449219 578.089844 1612.378906 572.671875 1633.820312 569.988281 C 1695.890625 562.238281 1755.078125 560.378906 1792.390625 565 C 1814.191406 567.691406 1836.761719 569.808594 1842.550781 569.710938 C 1852.570312 569.53125 1862.351562 570.890625 1923.328125 580.980469 C 1937.820312 583.378906 1960.261719 583.121094 1973.191406 580.398438 C 2021.019531 570.359375 2030.96875 571.550781 2088.011719 594.140625 C 2129.75 610.671875 2148.578125 620.570312 2172.921875 638.75 C 2194.839844 655.128906 2223.160156 670.640625 2267.550781 690.589844 C 2312.851562 710.949219 2337.691406 724.621094 2354.730469 738.570312 C 2370.890625 751.808594 2387.75 761.28125 2407.050781 767.988281 C 2426.960938 774.921875 2449.300781 787.691406 2481.328125 810.460938 C 2556.121094 863.648438 2588.078125 889.058594 2594.949219 900.808594 C 2598.519531 906.898438 2606.578125 919.921875 2612.859375 929.738281 C 2619.140625 939.550781 2630.320312 960.28125 2637.691406 975.789062 C 2645.058594 991.308594 2655.25 1011.699219 2660.328125 1021.101562 C 2672.21875 1043.109375 2671.800781 1061.660156 2658.480469 1102.640625 C 2648.601562 1133.019531 2647 1154.828125 2650.921875 1205.609375 C 2652.449219 1225.589844 2655 1229.269531 2693.78125 1267.679688 C 2712.820312 1286.539062 2735.371094 1309.800781 2743.910156 1319.378906 C 2764.351562 1342.328125 2817.921875 1440.890625 2822.71875 1464.378906 C 2824.800781 1474.539062 2828.121094 1487.621094 2830.101562 1493.441406 C 2836.039062 1510.871094 2837.5 1547.859375 2832.679688 1558.871094 C 2830.199219 1564.53125 2830.648438 1573.320312 2833.679688 1578.398438 C 2855.519531 1615.03125 2862.191406 1637.5 2860.320312 1668.148438 C 2859.230469 1685.921875 2858.449219 1722.761719 2858.578125 1750.019531 C 2858.789062 1793.949219 2856.640625 1806.429688 2839.699219 1859.789062 C 2827.710938 1897.539062 2820.511719 1929.171875 2820.390625 1944.609375 C 2820.28125 1958.148438 2818.359375 1973.511719 2816.101562 1978.75 C 2813.808594 1983.96875 2810.789062 1998.320312 2809.328125 2010.601562 C 2807.328125 2027.398438 2797.230469 2053.101562 2768.570312 2114.308594 L 2730.46875 2195.691406 L 2732.128906 2231.519531 C 2733.039062 2251.230469 2737.910156 2279.578125 2742.960938 2294.519531 C 2761.839844 2350.378906 2800.828125 2446.628906 2809.71875 2459.289062 C 2821.398438 2475.941406 2826.789062 2497.171875 2823.75 2514.578125 C 2822.449219 2522.070312 2807.738281 2552.929688 2791.078125 2583.171875 C 2755.390625 2647.941406 2753.339844 2663.140625 2777.25 2685.648438 C 2784.75 2692.71875 2795.558594 2707.851562 2801.261719 2719.289062 C 2806.96875 2730.71875 2816.25 2749.019531 2821.898438 2759.949219 C 2827.550781 2770.878906 2833.570312 2789.011719 2835.269531 2800.230469 C 2839.671875 2829.179688 2853.589844 2842.230469 2888.328125 2849.929688 C 2910.769531 2854.910156 2918.371094 2858.488281 2928.308594 2868.789062 C 2935.058594 2875.78125 2948.03125 2886.328125 2957.140625 2892.238281 C 2973.660156 2902.960938 2989.679688 2930.238281 2985.390625 2940.351562 C 2982.96875 2945.878906 2986.878906 2963.609375 2998.820312 3002.148438 C 3005.089844 3022.359375 3012.070312 3030.480469 3060.089844 3073.378906 C 3089.910156 3100.019531 3115.851562 3126.433594 3117.738281 3132.09375 C 3122.820312 3147.28125 3119.058594 3183.585938 3110.25 3204.3125 C 3106.070312 3214.324219 3101.921875 3231.605469 3101.179688 3242.765625 C 3098.910156 3276.730469 3078.871094 3311.558594 3042.769531 3344.304688 C 3008.390625 3375.480469 2990.910156 3411.699219 3002.25 3428.269531 C 3012.949219 3443.902344 2998.070312 3466.21875 2952.390625 3503.066406 C 2920.660156 3528.667969 2906.941406 3536.742188 2894.371094 3537.21875 C 2885.308594 3537.558594 2862.5 3538.8125 2843.671875 3539.996094 C 2805.988281 3542.375 2792.601562 3538.078125 2726.191406 3502.296875 L 2688.019531 3481.734375 L 2671.25 3499.5 C 2662.03125 3509.273438 2652.730469 3521.277344 2650.601562 3526.179688 C 2645.140625 3538.664062 2579.921875 3562.273438 2550.160156 3562.496094 C 2524.511719 3562.691406 2500.789062 3553.910156 2470.890625 3533.164062 Z M 2577.980469 3517.566406 C 2618.921875 3500.214844 2624.398438 3495.886719 2647.109375 3462.988281 C 2670.140625 3429.613281 2681.511719 3428.460938 2722.601562 3455.324219 C 2796.230469 3503.460938 2832.859375 3514.632812 2875.890625 3502.082031 C 2892.75 3497.167969 2926.398438 3475.464844 2947.800781 3455.703125 C 2957.230469 3447 2962.960938 3414.660156 2955.648438 3411.460938 C 2948.710938 3408.425781 2973.761719 3361.050781 2993.261719 3340.320312 C 3004.210938 3328.671875 3022.5 3305.652344 3033.890625 3289.164062 C 3053.140625 3261.316406 3055.46875 3255.476562 3066.691406 3206.910156 C 3080.191406 3148.453125 3077.78125 3131.449219 3052.988281 3110.269531 C 3045.261719 3103.660156 3027.761719 3088.859375 3014.109375 3077.398438 C 2968.179688 3038.808594 2956.410156 3019.550781 2947.078125 2967.730469 C 2936.839844 2910.859375 2930.238281 2903.171875 2874.550781 2883.199219 C 2812.828125 2861.058594 2799.191406 2845.261719 2786.601562 2781.261719 C 2784.929688 2772.730469 2776.699219 2758.269531 2768.320312 2749.121094 C 2759.929688 2739.980469 2751.371094 2725.929688 2749.289062 2717.898438 C 2747.148438 2709.660156 2740.949219 2701.308594 2735.050781 2698.730469 C 2711.789062 2688.550781 2703.808594 2655.039062 2714.910156 2614.199219 C 2719.71875 2596.5 2726.820312 2584.128906 2744.320312 2562.960938 C 2765.210938 2537.710938 2767.851562 2532.53125 2772.171875 2508.371094 C 2776.269531 2485.449219 2775.03125 2478.328125 2763.359375 2458.058594 C 2740.878906 2419.011719 2689.609375 2276.21875 2687.621094 2247.101562 C 2683.808594 2191.320312 2688.019531 2173.988281 2729.210938 2075.960938 C 2762.5 1996.730469 2767.851562 1980.71875 2769.320312 1956.109375 C 2770.25 1940.480469 2776.519531 1906.800781 2783.25 1881.261719 C 2809.609375 1781.261719 2816.988281 1736.109375 2811.929688 1705.75 C 2810.851562 1699.261719 2810.53125 1679.410156 2811.21875 1661.640625 C 2812.050781 1640.449219 2808.238281 1617.378906 2800.148438 1594.628906 C 2793.371094 1575.539062 2786.390625 1544.390625 2784.648438 1525.398438 C 2780.789062 1483.351562 2765.28125 1425.191406 2753.441406 1408.328125 C 2748.628906 1401.5 2739.148438 1387.128906 2732.359375 1376.398438 C 2725.558594 1365.671875 2712.320312 1347.601562 2702.929688 1336.230469 C 2693.550781 1324.871094 2679.730469 1308.128906 2672.21875 1299.019531 C 2664.71875 1289.910156 2651.050781 1275.429688 2641.851562 1266.839844 C 2617.289062 1243.898438 2604.589844 1214.828125 2604.121094 1180.46875 C 2603.890625 1163.921875 2603.300781 1146.058594 2602.800781 1140.78125 C 2601.039062 1122.070312 2606.140625 1088.390625 2614.46875 1063.730469 C 2621.960938 1041.578125 2621.730469 1036.441406 2612.449219 1018.460938 C 2606.691406 1007.308594 2595.21875 984.28125 2586.949219 967.289062 C 2571.191406 934.898438 2541.210938 895.960938 2527.121094 889.570312 C 2522.558594 887.5 2509.53125 877.398438 2498.148438 867.109375 C 2472.21875 843.628906 2447.328125 828.359375 2392.949219 802.550781 C 2369.371094 791.359375 2339.191406 773.46875 2325.878906 762.808594 C 2307.449219 748.039062 2290.28125 739.058594 2253.78125 725.078125 C 2220.460938 712.320312 2193.46875 698.648438 2165.121094 680.179688 C 2106.539062 642.019531 2065.28125 625.070312 2029.96875 624.679688 C 2014.25 624.5 1991.039062 623.851562 1978.390625 623.230469 C 1965.738281 622.601562 1949.570312 621.960938 1942.460938 621.800781 C 1917.179688 621.238281 1848.019531 613.410156 1840.910156 610.300781 C 1836.941406 608.558594 1819.929688 607.859375 1803.109375 608.738281 C 1786.289062 609.628906 1766.941406 609.699219 1760.109375 608.910156 C 1732.238281 605.660156 1664.058594 611.628906 1648.828125 618.660156 C 1639.871094 622.789062 1622.570312 634.730469 1610.371094 645.191406 C 1584.359375 667.511719 1524.609375 696.730469 1496.941406 700.660156 C 1485.230469 702.320312 1471.339844 709.21875 1461.910156 718.039062 C 1453.320312 726.078125 1431.851562 745.140625 1414.210938 760.398438 C 1387.761719 783.261719 1380.410156 792.429688 1372.371094 812.578125 C 1354.410156 857.589844 1330.800781 911.570312 1316.699219 939.789062 C 1306.199219 960.859375 1298.980469 969.78125 1287.421875 975.980469 C 1266.980469 986.929688 1265.121094 993.03125 1277.191406 1009.550781 C 1287.21875 1023.261719 1287.171875 1023.738281 1272.578125 1051.609375 C 1263.46875 1069 1257.671875 1085.679688 1257.609375 1095.238281 C 1257.480469 1103.960938 1252.671875 1118.820312 1246.558594 1129.378906 C 1237.660156 1144.75 1236.148438 1153.738281 1238.050781 1179.910156 C 1239.648438 1201.929688 1237.691406 1217.859375 1231.691406 1231.589844 C 1226.921875 1242.511719 1224.140625 1257.019531 1225.511719 1263.839844 C 1227.441406 1273.441406 1225.328125 1279.878906 1216.230469 1292.28125 C 1209.761719 1301.089844 1205.988281 1308.980469 1207.878906 1309.800781 C 1214.980469 1312.910156 1204.699219 1338.410156 1186.429688 1362.988281 L 1167.449219 1388.539062 L 1175.5 1403.871094 C 1179.921875 1412.308594 1186.050781 1420.320312 1189.121094 1421.671875 C 1194.128906 1423.878906 1195.871094 1444.738281 1191.820312 1453.988281 C 1185.859375 1467.621094 1149.691406 1436.789062 1131.320312 1402.421875 C 1124.761719 1390.148438 1125.261719 1388.050781 1141.058594 1360.859375 C 1167.210938 1315.910156 1165.28125 1321.699219 1188.53125 1218.421875 C 1192.878906 1199.128906 1194.488281 1180.53125 1192.109375 1177.089844 C 1189.460938 1173.238281 1191.5 1161.820312 1197.410156 1147.441406 C 1213.171875 1109.140625 1235.761719 1033.71875 1233.328125 1027.519531 C 1230.640625 1020.640625 1217.03125 1029.171875 1190.390625 1054.429688 C 1173.148438 1070.78125 1169.261719 1077.878906 1150.03125 1128.179688 C 1134.21875 1169.511719 1123.03125 1192.070312 1106.550781 1215.871094 C 1063.828125 1277.550781 1062.921875 1279.46875 1064.5 1305.019531 C 1065.300781 1318.011719 1066.871094 1330.210938 1067.988281 1332.140625 C 1069.121094 1334.070312 1064.96875 1351.050781 1058.78125 1369.878906 C 1052.589844 1388.710938 1048.460938 1410.398438 1049.589844 1418.078125 C 1052.921875 1440.601562 1094.839844 1540.738281 1117.871094 1581.210938 C 1124.371094 1592.621094 1129.691406 1603.71875 1129.710938 1605.878906 C 1129.71875 1608.050781 1132.519531 1611.03125 1135.941406 1612.53125 C 1139.410156 1614.050781 1140.308594 1619.609375 1137.96875 1625.160156 C 1132.78125 1637.480469 1135.988281 1651.769531 1145.878906 1660.441406 C 1152.070312 1665.871094 1161.449219 1705.191406 1161.328125 1725.230469 C 1161.320312 1727.96875 1163.261719 1735.761719 1165.640625 1742.558594 C 1168.03125 1749.351562 1168.730469 1763.179688 1167.210938 1773.289062 C 1165.691406 1783.390625 1165.859375 1793.71875 1167.601562 1796.230469 C 1169.339844 1798.738281 1171.378906 1809.71875 1172.140625 1820.628906 C 1172.898438 1831.539062 1179.558594 1856.5 1186.929688 1876.101562 C 1198.890625 1907.898438 1199.359375 1912.71875 1191.339844 1920.898438 C 1181.320312 1931.109375 1184.449219 1940.460938 1207.910156 1970.371094 L 1220.351562 1986.238281 L 1272.039062 1994.378906 C 1300.46875 1998.859375 1333.921875 2002.371094 1346.371094 2002.179688 C 1365.601562 2001.898438 1372.148438 2003.988281 1389.890625 2016.128906 C 1418.378906 2035.621094 1450.140625 2071.578125 1458.148438 2093.441406 C 1464.550781 2110.878906 1466.238281 2112.171875 1505.75 2129.460938 L 1546.71875 2147.378906 L 1553.390625 2125.5 C 1557.058594 2113.460938 1566.398438 2087.898438 1574.148438 2068.710938 C 1589.839844 2029.820312 1597.679688 2024.300781 1616.53125 2038.878906 C 1626.789062 2046.808594 1626.71875 2047.28125 1609.5 2086.621094 C 1596.46875 2116.410156 1593.691406 2126.511719 1598.371094 2126.988281 C 1604.429688 2127.609375 1610.410156 2123.148438 1652.488281 2086.621094 C 1668.269531 2072.910156 1675.101562 2070.050781 1684.910156 2073.039062 C 1694.621094 2076 1697.199219 2079.621094 1696.710938 2089.601562 C 1696.359375 2096.628906 1692.101562 2107.261719 1687.238281 2113.21875 C 1682.378906 2119.191406 1674.269531 2136.808594 1669.230469 2152.390625 C 1660.070312 2180.660156 1661.320312 2189.898438 1677.410156 2212.628906 C 1686.289062 2225.191406 1667.921875 2236.96875 1650.988281 2229.570312 C 1636.378906 2223.171875 1629.109375 2209.078125 1629.25 2187.410156 C 1629.351562 2169.71875 1624.050781 2167 1608.800781 2176.960938 C 1602.308594 2181.191406 1593.039062 2184.230469 1588.191406 2183.71875 C 1581.121094 2182.96875 1575.910156 2189.28125 1562.050781 2215.410156 C 1552.070312 2234.199219 1545.589844 2250.988281 1546.738281 2255.011719 C 1548.78125 2262.121094 1551.898438 2264.828125 1593.679688 2295.828125 C 1669.839844 2352.351562 1679.941406 2361.800781 1684.21875 2380.550781 C 1686.910156 2392.390625 1691.78125 2398.851562 1701.03125 2402.898438 C 1708.191406 2406.03125 1713.199219 2410.53125 1712.160156 2412.898438 C 1711.128906 2415.261719 1715.160156 2420.808594 1721.128906 2425.21875 C 1752.980469 2448.800781 1795.289062 2488.328125 1795.019531 2494.25 C 1794.828125 2497.988281 1800.53125 2505.019531 1807.660156 2509.878906 C 1814.789062 2514.738281 1824.140625 2526.859375 1828.429688 2536.828125 C 1839.699219 2562.988281 1861.941406 2588.308594 1886.101562 2602.480469 L 1907.121094 2614.800781 L 1999.261719 2574.261719 L 2019.71875 2599.089844 C 2030.980469 2612.75 2042.640625 2626.378906 2045.628906 2629.378906 C 2068.71875 2652.46875 2083.671875 2684.628906 2090.160156 2725.191406 C 2094.398438 2751.621094 2101.679688 2771.359375 2115.46875 2793.808594 C 2130.429688 2818.160156 2135.429688 2832.679688 2137.480469 2857.710938 C 2138.941406 2875.519531 2138.738281 2893.410156 2137.058594 2897.449219 C 2135.300781 2901.46875 2135.78125 2906.429688 2137.96875 2908.410156 C 2140.160156 2910.390625 2139.429688 2920.800781 2136.351562 2931.558594 C 2133.261719 2942.308594 2132.320312 2954.238281 2134.238281 2958.070312 C 2137.839844 2965.230469 2170.191406 2969.671875 2247.480469 2973.601562 C 2286.75 2975.601562 2312.738281 2985.238281 2331.308594 3004.679688 C 2355.339844 3029.828125 2354.839844 3047.25 2329 3085.421875 C 2320.710938 3097.679688 2320.351562 3101.5 2326.570312 3111.019531 C 2330.601562 3117.171875 2338.21875 3125.738281 2343.511719 3130.054688 C 2364.371094 3147.058594 2404.339844 3200.128906 2416.859375 3227.441406 L 2430.070312 3256.25 L 2409.960938 3299.03125 C 2391 3339.394531 2390.199219 3342.671875 2395.921875 3357.078125 C 2399.25 3365.480469 2418.671875 3392.90625 2439.058594 3418.03125 C 2459.460938 3443.160156 2477.890625 3470.40625 2480.011719 3478.585938 C 2484.980469 3497.746094 2501.140625 3514.984375 2523.570312 3525.058594 C 2539.789062 3532.335938 2544.679688 3531.664062 2577.960938 3517.558594 Z M 2553.890625 3405.597656 C 2550.859375 3391.929688 2549.328125 3390.699219 2534.410156 3389.941406 C 2521.640625 3389.292969 2517.328125 3387.335938 2513.988281 3380.695312 C 2506.539062 3365.863281 2513.738281 3346.097656 2532.050781 3331.085938 C 2547.769531 3318.203125 2549.488281 3317.933594 2557.640625 3327.035156 C 2565.011719 3335.253906 2565.078125 3339.792969 2558.070312 3355.8125 C 2549.089844 3376.320312 2551.570312 3380.027344 2571.921875 3376.585938 C 2588.589844 3373.765625 2595.25 3380.429688 2595.328125 3400 C 2595.421875 3422.894531 2588.160156 3430.527344 2571.441406 3425.074219 C 2560.480469 3421.5 2556.421875 3417.003906 2553.890625 3405.597656 Z M 2465.679688 3312.066406 C 2469.878906 3274.195312 2469.148438 3275.519531 2486.210938 3274.730469 C 2499.28125 3274.125 2501.320312 3275.449219 2506.699219 3288.023438 C 2514.089844 3305.3125 2510.640625 3321.90625 2496.121094 3338.78125 C 2487.210938 3349.152344 2482.761719 3350.726562 2473.699219 3346.726562 C 2463.730469 3342.328125 2462.78125 3338.234375 2465.679688 3312.066406 Z M 2655.488281 3306.21875 C 2655.050781 3303.15625 2647.910156 3297.683594 2639.621094 3294.050781 C 2623.121094 3286.835938 2622.140625 3282.925781 2636.039062 3279.832031 C 2644.101562 3278.039062 2644.621094 3276.03125 2640.839844 3261.453125 C 2635.921875 3242.527344 2644.660156 3225.621094 2671.609375 3201.878906 C 2680.691406 3193.882812 2691.78125 3182.378906 2696.261719 3176.320312 C 2700.75 3170.261719 2708.351562 3165.527344 2713.171875 3165.808594 C 2734.148438 3167.019531 2766.210938 3158.109375 2786.03125 3145.558594 C 2804.808594 3133.660156 2809.140625 3128.125 2821.128906 3100.738281 C 2834.46875 3070.25 2834.558594 3068.960938 2824.980469 3047.171875 C 2819.589844 3034.890625 2809.828125 3016.921875 2803.300781 3007.21875 C 2790.148438 2987.691406 2790.75 2980.921875 2805.980469 2977.25 C 2816.960938 2974.601562 2836.960938 2981.011719 2834.609375 2986.429688 C 2833.820312 2988.238281 2839.230469 2998.691406 2846.628906 3009.660156 C 2854.039062 3020.628906 2864.261719 3040.679688 2869.351562 3054.21875 C 2878.148438 3077.628906 2877.96875 3080.621094 2865.761719 3114.699219 C 2855.609375 3143.019531 2849.859375 3153.199219 2838.429688 3163.136719 C 2824.609375 3175.144531 2782.371094 3191.859375 2750.589844 3197.902344 C 2742.410156 3199.457031 2727.21875 3208.675781 2716.839844 3218.382812 C 2706.460938 3228.09375 2696.238281 3235.277344 2694.128906 3234.355469 C 2687.828125 3231.601562 2681.351562 3251.660156 2684.109375 3265.363281 C 2687.890625 3284.160156 2694.621094 3284.488281 2724.75 3267.339844 C 2790.179688 3230.109375 2811.53125 3229.460938 2825.171875 3264.28125 C 2831.460938 3280.347656 2830.960938 3283.371094 2818.300781 3305.664062 C 2810.789062 3318.894531 2805.5 3330.089844 2806.558594 3330.550781 C 2807.601562 3331.007812 2818.589844 3325.105469 2830.960938 3317.429688 C 2849.441406 3305.953125 2855.410156 3304.617188 2864.519531 3309.921875 C 2880.671875 3319.335938 2870.261719 3335.546875 2835.03125 3355.808594 C 2806.519531 3372.210938 2806.328125 3372.230469 2782.988281 3362.015625 C 2752.398438 3348.632812 2749.570312 3340.125 2767.851562 3316.539062 C 2783.988281 3295.703125 2793.121094 3276.148438 2786.859375 3275.804688 C 2779.808594 3275.421875 2728.808594 3303.722656 2721.480469 3312.078125 C 2708.378906 3327.019531 2657.800781 3322.523438 2655.480469 3306.21875 Z M 2472.410156 3201.917969 C 2471.460938 3199.488281 2473.089844 3192.011719 2476.019531 3185.304688 C 2479.53125 3177.289062 2478.578125 3166.644531 2473.238281 3154.257812 C 2464.351562 3133.613281 2467.820312 3127.828125 2487.121094 3131.074219 C 2503.238281 3133.785156 2530.148438 3169.007812 2525.039062 3180.695312 C 2517 3199.0625 2477.53125 3214.980469 2472.410156 3201.917969 Z M 2403.359375 3090.46875 C 2403.730469 3083.988281 2410.089844 3061.21875 2417.488281 3039.871094 C 2430.800781 3001.449219 2431.089844 3001.039062 2444.851562 2999.949219 C 2457.261719 2998.96875 2459.261719 3000.160156 2463.351562 3010.980469 C 2467.121094 3020.910156 2464.730469 3031.148438 2450.171875 3067.539062 L 2432.378906 3111.980469 L 2417.53125 3107.121094 C 2405.5 3103.179688 2402.808594 3100.019531 2403.359375 3090.46875 Z M 2896.929688 3299.359375 C 2896.820312 3291.992188 2897.859375 3283.378906 2899.25 3280.210938 C 2900.628906 3277.046875 2900.011719 3265.03125 2897.878906 3253.515625 C 2893 3227.253906 2894.460938 3224.0625 2911.488281 3223.804688 C 2923.949219 3223.617188 2925.738281 3225.265625 2930.449219 3241.355469 C 2933.320312 3251.117188 2937.449219 3265.199219 2939.648438 3272.644531 C 2941.910156 3280.316406 2940.710938 3292.851562 2936.890625 3301.59375 C 2931.410156 3314.105469 2927.671875 3316.886719 2917.03125 3316.363281 C 2898.46875 3315.449219 2897.148438 3314.335938 2896.929688 3299.355469 Z M 2526.929688 3128.109375 C 2520.160156 3120 2520.078125 3112.578125 2526.519531 3087.378906 C 2530.839844 3070.429688 2536.160156 3054.589844 2538.328125 3052.179688 C 2540.511719 3049.769531 2548.691406 3050.601562 2556.511719 3054.03125 C 2570.011719 3059.929688 2570.5 3061.488281 2566.128906 3084.738281 C 2560.320312 3115.679688 2555.199219 3126.894531 2544.058594 3133.097656 C 2536.648438 3137.226562 2533.871094 3136.417969 2526.929688 3128.109375 Z M 2475.828125 3080.078125 C 2478.640625 3066.230469 2482.191406 3045.640625 2483.710938 3034.320312 C 2487.058594 3009.480469 2498.460938 3001.070312 2515.171875 3010.871094 C 2527.070312 3017.828125 2526.410156 3029 2511.039062 3081.128906 C 2501.601562 3113.128906 2497.570312 3116.78125 2480 3109.238281 C 2472.351562 3105.949219 2471.609375 3100.839844 2475.828125 3080.078125 Z M 2577.300781 3128.230469 C 2571.011719 3112.148438 2579.359375 3086.140625 2592.738281 3080.121094 C 2599.078125 3077.261719 2607.859375 3076.5 2612.25 3078.421875 C 2622.941406 3083.101562 2624.070312 3109.511719 2614.511719 3131.367188 C 2607.199219 3148.070312 2605.980469 3148.78125 2593.910156 3143.5 C 2586.851562 3140.410156 2579.371094 3133.539062 2577.300781 3128.230469 Z M 2962.121094 3280.222656 C 2959.941406 3271.8125 2959.46875 3261.933594 2961.070312 3258.269531 C 2962.671875 3254.601562 2961.890625 3242.988281 2959.320312 3232.460938 C 2955.078125 3215.066406 2955.558594 3212.960938 2964.539062 3209.445312 C 2979.789062 3203.480469 2987.148438 3209.394531 2997.550781 3235.972656 C 3005.441406 3256.144531 3005.789062 3263.472656 2999.53125 3277.773438 C 2993.328125 3291.945312 2989.578125 3295.152344 2979.019531 3295.3125 C 2967.71875 3295.476562 2965.589844 3293.578125 2962.121094 3280.222656 Z M 2363.058594 2981.949219 C 2363.359375 2975.519531 2359.300781 2972.679688 2343.910156 2968.519531 C 2326.128906 2963.71875 2324.359375 2962.039062 2324.179688 2949.679688 C 2323.75 2921.148438 2350.539062 2888.988281 2373.808594 2890.140625 C 2392.550781 2891.058594 2393.378906 2897.761719 2377.78125 2922.140625 C 2360.78125 2948.710938 2361.328125 2958.160156 2379.480469 2951.058594 C 2396.878906 2944.25 2411.679688 2950.480469 2406.449219 2962.421875 C 2395.070312 2988.429688 2362.078125 3003.28125 2363.058594 2981.949219 Z M 2253.980469 2923.878906 C 2248.96875 2911.070312 2260.109375 2885.949219 2281.148438 2862.648438 C 2301.761719 2839.808594 2306.828125 2837.011719 2322.761719 2839.691406 C 2342.320312 2842.980469 2342.21875 2851.328125 2322.339844 2872.5 C 2305.511719 2890.429688 2304.730469 2892.171875 2306.589844 2907.5 C 2309.089844 2928.050781 2305.78125 2935.339844 2291.828125 2940 C 2277.699219 2944.730469 2259.03125 2936.78125 2253.980469 2923.878906 Z M 2167.351562 2872.710938 C 2164.109375 2868.269531 2161.46875 2859.550781 2161.488281 2853.320312 C 2161.5 2847.101562 2161.070312 2838.289062 2160.519531 2833.738281 C 2155.78125 2794.441406 2158.839844 2773.839844 2173.070312 2749.269531 C 2186.53125 2726.039062 2186.929688 2724.121094 2178.230469 2723.980469 C 2153.679688 2723.589844 2147.609375 2719.890625 2149.839844 2706.671875 C 2151.03125 2699.558594 2156.628906 2686.550781 2162.289062 2677.761719 C 2171.339844 2663.660156 2171.609375 2660.289062 2164.570312 2649.5 C 2160.171875 2642.761719 2156.128906 2630.46875 2155.589844 2622.171875 L 2154.621094 2607.101562 L 2139.160156 2613.148438 C 2116.320312 2622.089844 2103.359375 2614.03125 2095.199219 2585.800781 C 2088.839844 2563.828125 2087.019531 2561.691406 2073.070312 2559.839844 C 2055.570312 2557.511719 2039.429688 2542.710938 2023.898438 2514.710938 C 2018.488281 2504.96875 2009.410156 2493.28125 2003.710938 2488.730469 C 1995.460938 2482.140625 1994.488281 2477.828125 1998.960938 2467.621094 C 2004.191406 2455.679688 2005.890625 2455.25 2023.621094 2461.53125 C 2040.5 2467.5 2043.980469 2471.25 2054.171875 2494.480469 C 2066.378906 2522.300781 2075.5 2529.648438 2091.25 2524.378906 C 2098.058594 2522.101562 2106.300781 2524.371094 2118.789062 2531.949219 C 2134.949219 2541.761719 2136.839844 2545.25 2139.03125 2569.128906 C 2142.011719 2601.640625 2150.910156 2606.929688 2168.230469 2586.511719 C 2183.261719 2568.789062 2203.109375 2568.320312 2209.828125 2585.519531 C 2213.058594 2593.769531 2211.960938 2597.160156 2203.640625 2604.621094 C 2198.078125 2609.609375 2192.699219 2615.570312 2191.699219 2617.859375 C 2188.550781 2625.058594 2198.621094 2626.308594 2204.988281 2619.519531 C 2216.921875 2606.789062 2230.949219 2603.460938 2245.609375 2609.878906 C 2263.039062 2617.5 2261.890625 2622.109375 2237.308594 2643.121094 C 2226.300781 2652.539062 2213.441406 2669.949219 2203.96875 2688.261719 L 2188.550781 2718.070312 L 2210.828125 2703.378906 C 2233.269531 2688.589844 2248.96875 2684.449219 2261.621094 2689.988281 C 2270.371094 2693.820312 2263.128906 2710.601562 2249.429688 2718.289062 C 2243.851562 2721.421875 2237.28125 2728.539062 2234.851562 2734.101562 C 2231.429688 2741.910156 2232.859375 2745.289062 2241.121094 2748.910156 C 2255.851562 2755.351562 2255.488281 2761.109375 2239.289062 2778.449219 C 2231.628906 2786.648438 2219.929688 2801.980469 2213.300781 2812.53125 C 2202.609375 2829.53125 2202.199219 2831.910156 2209.699219 2833.578125 C 2215.050781 2834.769531 2224.328125 2828.539062 2234.929688 2816.628906 C 2244.148438 2806.269531 2260.601562 2791.140625 2271.488281 2783.019531 C 2344.191406 2728.738281 2341.570312 2730.199219 2355.289062 2736.199219 C 2365.648438 2740.738281 2366.601562 2743.28125 2361.949219 2753.910156 C 2358.96875 2760.730469 2346.46875 2778.179688 2334.191406 2792.671875 C 2298.570312 2834.710938 2296.320312 2836.378906 2285.960938 2828.359375 C 2274.210938 2819.269531 2266.550781 2823.570312 2246.558594 2850.5 C 2226.800781 2877.109375 2211.371094 2890.25 2200.449219 2889.75 C 2188.25 2889.179688 2174.078125 2881.890625 2167.378906 2872.710938 Z M 2517.519531 2974.140625 C 2506.960938 2963.390625 2509.800781 2957.871094 2528.980469 2951.871094 C 2543.039062 2947.46875 2545.71875 2944.148438 2556.21875 2918.128906 C 2574.839844 2871.960938 2577.949219 2867.25 2594.640625 2859.980469 C 2606.261719 2854.921875 2614.769531 2854.980469 2626.671875 2860.179688 C 2640.441406 2866.210938 2644.78125 2872.25 2655.441406 2900.191406 C 2662.351562 2918.289062 2668.46875 2937.960938 2669.039062 2943.890625 C 2670 2953.839844 2671.839844 2954.949219 2692.589844 2958.109375 C 2727.570312 2963.441406 2737.191406 2969.179688 2736.449219 2984.28125 C 2735.171875 3010.339844 2731.71875 3012.261719 2709.890625 2999.039062 C 2695.558594 2990.371094 2685.179688 2987.230469 2672.878906 2987.851562 C 2658.019531 2988.589844 2653.679688 2986.871094 2639.828125 2974.75 C 2626.070312 2962.710938 2623.589844 2956.539062 2621.761719 2929.851562 C 2620.589844 2912.828125 2617.371094 2898.710938 2614.601562 2898.46875 C 2611.609375 2898.210938 2603.148438 2914.050781 2593.710938 2937.621094 C 2576.378906 2980.859375 2569.800781 2987.488281 2545.378906 2986.289062 C 2529.160156 2985.488281 2528.289062 2985.109375 2517.519531 2974.128906 Z M 2462.480469 2864.238281 C 2460.03125 2855.53125 2453.660156 2847.519531 2446.601562 2844.289062 C 2428.78125 2836.121094 2396.011719 2802.441406 2390.828125 2786.949219 C 2384.828125 2769.03125 2387.339844 2743.570312 2397.359375 2720.671875 C 2404.980469 2703.261719 2404.519531 2700.960938 2389.109375 2678.539062 L 2372.808594 2654.808594 L 2357.289062 2661.570312 C 2347.511719 2665.839844 2338.390625 2666.238281 2332.589844 2662.648438 C 2324.640625 2657.738281 2324.550781 2653.871094 2331.941406 2633.921875 C 2338.089844 2617.289062 2343.320312 2609.75 2350.679688 2606.871094 C 2364.46875 2601.46875 2372.921875 2605.960938 2373.960938 2619.230469 C 2374.671875 2628.140625 2377.808594 2630.929688 2390.46875 2633.851562 C 2403.730469 2636.921875 2409.339844 2642.53125 2427.28125 2670.660156 C 2438.910156 2688.921875 2450.039062 2704.558594 2452.011719 2705.421875 C 2453.96875 2706.28125 2449.101562 2721.769531 2441.191406 2739.851562 C 2429.148438 2767.359375 2427.640625 2774.871094 2431.960938 2785.898438 C 2436.539062 2797.609375 2440.511719 2800.191406 2467.53125 2809.03125 L 2497.949219 2818.96875 L 2498.570312 2840.851562 C 2498.910156 2852.878906 2501.871094 2867.121094 2505.140625 2872.488281 C 2510.089844 2880.609375 2509.648438 2882.96875 2502.511719 2886.558594 C 2489.050781 2893.320312 2467.21875 2881.148438 2462.46875 2864.238281 Z M 2860.46875 2957.640625 C 2859.25 2949 2869.539062 2950.410156 2879.558594 2960.238281 C 2884.75 2965.328125 2888.550781 2970.539062 2888 2971.800781 C 2886.21875 2975.871094 2861.238281 2963.011719 2860.46875 2957.640625 Z M 1867.609375 2487.339844 C 1869.679688 2482.589844 1898.488281 2459.21875 1908.398438 2454.238281 C 1912.839844 2452.011719 1921.171875 2452.230469 1926.898438 2454.738281 C 1935.589844 2458.539062 1936.351562 2461.519531 1931.488281 2472.628906 C 1922.511719 2493.140625 1898.210938 2504.851562 1880.609375 2497.148438 C 1872.628906 2493.648438 1866.78125 2489.238281 1867.609375 2487.339844 Z M 1838.480469 2446.511719 C 1842.628906 2437.03125 1888.210938 2397.96875 1903.359375 2390.921875 C 1915.589844 2385.21875 1930.300781 2390.921875 1938.121094 2404.371094 C 1943.671875 2413.898438 1943 2414.609375 1920.511719 2423.03125 C 1907.660156 2427.839844 1896.191406 2433.960938 1895.019531 2436.628906 C 1890.789062 2446.289062 1858.738281 2460.21875 1846.941406 2457.539062 C 1837.441406 2455.378906 1835.628906 2453.019531 1838.480469 2446.511719 Z M 1791.828125 2409.898438 C 1793.171875 2406.851562 1801.871094 2399.488281 1811.171875 2393.558594 C 1820.46875 2387.628906 1836.800781 2375.429688 1847.460938 2366.449219 C 1858.121094 2357.46875 1868.148438 2350.699219 1869.738281 2351.398438 C 1871.328125 2352.101562 1878.859375 2345.738281 1886.460938 2337.28125 C 1903.121094 2318.710938 1924.179688 2313.210938 1930.5 2325.789062 C 1936.238281 2337.21875 1932.179688 2344.359375 1912.019531 2358.261719 C 1902.519531 2364.808594 1889.351562 2375.449219 1882.769531 2381.898438 C 1876.179688 2388.359375 1869.460938 2393.050781 1867.820312 2392.328125 C 1866.179688 2391.621094 1859 2397.289062 1851.859375 2404.929688 C 1844.710938 2412.570312 1834.328125 2420.960938 1828.789062 2423.558594 C 1817 2429.101562 1788.101562 2418.421875 1791.828125 2409.898438 Z M 2288.578125 2583.421875 C 2287.671875 2581.109375 2290.839844 2570.308594 2295.601562 2559.410156 L 2304.269531 2539.601562 L 2286.828125 2546 C 2273 2551.070312 2265.148438 2550.539062 2248.980469 2543.460938 C 2221.550781 2531.460938 2215.519531 2515.609375 2229.570312 2492.480469 C 2238.519531 2477.738281 2238.621094 2474.179688 2230.539062 2457.96875 C 2223.921875 2444.699219 2223.199219 2437.199219 2227.828125 2429.691406 C 2233.46875 2420.539062 2235.921875 2420.390625 2251.160156 2428.21875 C 2262.078125 2433.828125 2269.210938 2441.070312 2271.039062 2448.410156 C 2272.621094 2454.691406 2278.621094 2464.421875 2284.390625 2470.011719 C 2293.171875 2478.53125 2293.691406 2481.988281 2287.578125 2491.261719 C 2283.570312 2497.351562 2277.300781 2505.140625 2273.648438 2508.570312 C 2261.878906 2519.621094 2275.769531 2519.488281 2300.539062 2508.320312 C 2321.121094 2499.050781 2326.410156 2498.699219 2339.5 2505.789062 C 2353.488281 2513.359375 2354.230469 2515.199219 2349.148438 2529.859375 C 2346.121094 2538.589844 2341.46875 2555.851562 2338.789062 2568.230469 C 2332.199219 2598.730469 2326.441406 2603.46875 2306.550781 2594.769531 C 2297.570312 2590.839844 2289.480469 2585.730469 2288.578125 2583.421875 Z M 1716.851562 2320.820312 C 1714.03125 2312.808594 1715.210938 2301.871094 1720.070312 2290.75 C 1729.839844 2268.421875 1728.199219 2264.929688 1710.800781 2271.03125 C 1688.429688 2278.890625 1683.339844 2271.070312 1692.078125 2242.269531 C 1696.289062 2228.351562 1701.859375 2208.480469 1704.429688 2198.121094 C 1707.070312 2187.460938 1713.519531 2174.820312 1719.25 2169.019531 C 1727.910156 2160.28125 1731.398438 2159.890625 1743.039062 2166.378906 L 1756.691406 2173.988281 L 1742.101562 2204.160156 C 1725.988281 2237.46875 1721.320312 2255.121094 1727.871094 2257.980469 C 1730.230469 2259.019531 1734.648438 2254.191406 1737.691406 2247.25 C 1743.988281 2232.839844 1757.21875 2227.308594 1767.738281 2234.691406 C 1773.519531 2238.75 1773.101562 2243.160156 1765.609375 2257.320312 C 1760.488281 2266.988281 1754.839844 2286.609375 1753.058594 2300.921875 C 1751.28125 2315.21875 1748.25 2330.511719 1746.328125 2334.890625 C 1741.46875 2346.011719 1722.511719 2336.960938 1716.851562 2320.820312 Z M 1800.878906 2347.160156 C 1800.171875 2342.128906 1816.910156 2328.460938 1883.078125 2280.070312 C 1903.921875 2264.820312 1930.878906 2271.148438 1922.890625 2289.410156 C 1921.25 2293.160156 1908.851562 2302.640625 1895.339844 2310.46875 C 1881.820312 2318.289062 1862.691406 2332.101562 1852.828125 2341.140625 C 1832.261719 2359.980469 1803.179688 2363.359375 1800.878906 2347.160156 Z M 1780.570312 2281.558594 C 1776.921875 2276.019531 1780.050781 2272.089844 1798.351562 2259.269531 C 1810.558594 2250.710938 1827.25 2238.410156 1835.421875 2231.941406 C 1843.601562 2225.46875 1854.78125 2218.019531 1860.261719 2215.390625 C 1871.078125 2210.199219 1889.78125 2216 1891.050781 2224.949219 C 1891.480469 2228.011719 1872.921875 2245.148438 1849.800781 2263.039062 C 1815.609375 2289.488281 1805.648438 2294.878906 1796.378906 2291.929688 C 1790.121094 2289.929688 1783 2285.269531 1780.570312 2281.558594 Z M 2118.800781 2425.140625 C 2121.53125 2415.089844 2131.769531 2399.398438 2140.140625 2392.449219 C 2147.429688 2386.378906 2152.53125 2386.21875 2162.378906 2391.738281 C 2176.730469 2399.769531 2176.609375 2408.421875 2161.820312 2430.128906 C 2153.089844 2442.941406 2151.421875 2443.328125 2135.171875 2436.21875 C 2125.640625 2432.050781 2118.269531 2427.058594 2118.800781 2425.140625 Z M 2085.550781 2371.421875 C 2090.78125 2359.941406 2108.378906 2349.839844 2125.128906 2348.820312 C 2135.058594 2348.21875 2137.109375 2349.808594 2137.808594 2358.640625 C 2138.269531 2364.429688 2137.289062 2372.261719 2135.640625 2376.03125 C 2130.71875 2387.269531 2108.421875 2393.179688 2094.289062 2387 C 2083.550781 2382.300781 2081.949219 2379.449219 2085.550781 2371.421875 Z M 2034.460938 2341.730469 C 2026.488281 2335.199219 2026.449219 2335.351562 2039.160156 2323.949219 C 2044.648438 2319.039062 2052.320312 2316.410156 2056.21875 2318.121094 C 2060.121094 2319.820312 2069.410156 2319.988281 2076.871094 2318.488281 C 2089.621094 2315.929688 2090.578125 2316.410156 2092.820312 2326.46875 C 2094.128906 2332.359375 2094.210938 2339.449219 2092.980469 2342.230469 C 2087.089844 2355.699219 2051.109375 2355.390625 2034.449219 2341.730469 Z M 1981.078125 2308.070312 C 1977.589844 2299.148438 2040.519531 2264.25 2051.460938 2269.039062 C 2057.648438 2271.75 2058.480469 2289.910156 2052.96875 2301.988281 C 2044.410156 2320.730469 1987.898438 2325.511719 1981.078125 2308.070312 Z M 2297.191406 2418.550781 C 2295.691406 2415.421875 2289.488281 2401.460938 2283.398438 2387.53125 C 2274.269531 2366.609375 2266.851562 2358.140625 2240.75 2338.828125 C 2223.371094 2325.96875 2209.871094 2313.800781 2210.75 2311.78125 C 2211.640625 2309.769531 2207.378906 2305.941406 2201.289062 2303.269531 C 2186.25 2296.691406 2170.140625 2253.699219 2167.03125 2211.828125 C 2164.261719 2174.738281 2166.601562 2165.339844 2178.421875 2165.878906 C 2201.871094 2166.96875 2214.5 2184.738281 2212.839844 2214.328125 C 2212.601562 2218.539062 2214.851562 2232.878906 2217.808594 2246.199219 C 2222.140625 2265.589844 2227.269531 2273.761719 2243.519531 2287.140625 C 2284.050781 2320.488281 2296.121094 2329.101562 2312 2336.050781 C 2327.261719 2342.730469 2328.140625 2344.570312 2327.679688 2369.03125 C 2327.210938 2394.210938 2327.699219 2395.140625 2345.28125 2402.71875 C 2356.261719 2407.449219 2369.128906 2409.101562 2378.011719 2406.898438 C 2391.851562 2403.46875 2393.691406 2400.921875 2411.589844 2360.300781 C 2432.339844 2313.339844 2440.640625 2304.808594 2469.839844 2300.871094 C 2491.050781 2298.019531 2543.148438 2319.339844 2548.519531 2333.070312 C 2550.601562 2338.390625 2551.628906 2344.269531 2550.808594 2346.140625 C 2549.988281 2348.011719 2555.019531 2364.730469 2561.96875 2383.289062 C 2575.878906 2420.398438 2583.808594 2449.730469 2581.410156 2455.210938 C 2579.519531 2459.550781 2556.578125 2458.75 2545.660156 2453.96875 C 2540.980469 2451.921875 2537.421875 2443.339844 2537.058594 2433.238281 C 2536.199219 2409.300781 2508.871094 2343.878906 2497.691406 2338.980469 C 2492.671875 2336.789062 2481.890625 2338.53125 2473.738281 2342.859375 C 2460.929688 2349.671875 2457.738281 2354.410156 2450.269531 2377.75 C 2445.5 2392.601562 2442.558594 2408.070312 2443.730469 2412.109375 C 2452 2440.871094 2372.261719 2456.648438 2325.199219 2435.570312 C 2311.300781 2429.339844 2298.691406 2421.679688 2297.191406 2418.550781 Z M 2647.96875 2573.589844 C 2647.070312 2571.28125 2651.898438 2556.671875 2658.699219 2541.128906 L 2671.070312 2512.859375 L 2657.730469 2510.53125 C 2624.351562 2504.699219 2624.679688 2505.519531 2641.050781 2468.101562 C 2657.339844 2430.878906 2662.671875 2427.070312 2685 2436.699219 C 2697.140625 2441.929688 2697.140625 2442.109375 2684.730469 2462.609375 L 2672.238281 2483.25 L 2690.160156 2491.101562 C 2707.210938 2498.558594 2707.941406 2499.839844 2705.101562 2517.21875 C 2697.800781 2561.738281 2692.488281 2574.339844 2678.761719 2579.710938 C 2665.890625 2584.738281 2651.191406 2581.820312 2647.96875 2573.589844 Z M 1919.019531 2241.570312 C 1904.808594 2224.929688 1903.859375 2209.421875 1916.929688 2207.558594 C 1926.390625 2206.210938 1933.691406 2182.488281 1931.128906 2161.359375 C 1928.730469 2141.621094 1929.03125 2140.851562 1946.730469 2120.570312 C 1966.878906 2097.5 1967.910156 2084.441406 1949.949219 2079.460938 C 1942.328125 2077.339844 1936.269531 2081.800781 1921.921875 2100.078125 C 1899.140625 2129.078125 1892.320312 2135.171875 1883.160156 2134.75 C 1875.980469 2134.421875 1841.21875 2107.339844 1829.929688 2093.289062 C 1826.710938 2089.269531 1818.578125 2083.578125 1811.878906 2080.640625 C 1796.839844 2074.058594 1779.039062 2047.140625 1761.621094 2004.609375 C 1747.050781 1969.078125 1747.53125 1961.761719 1764.46875 1960.421875 C 1782.949219 1958.960938 1793.648438 1971.789062 1802.359375 2005.828125 C 1806.878906 2023.488281 1814.800781 2041.949219 1819.949219 2046.839844 C 1843.171875 2068.878906 1861.078125 2082.148438 1871.589844 2085.078125 C 1881.820312 2087.941406 1884.148438 2085.949219 1894.46875 2065.621094 C 1904.75 2045.371094 1907.828125 2042.738281 1923.710938 2040.578125 C 1942.011719 2038.089844 1989.148438 2054.480469 1985.78125 2062.160156 C 1984.851562 2064.289062 1989.460938 2072.21875 1996.019531 2079.78125 C 2010.988281 2097.011719 2009.941406 2107.988281 1991.660156 2125.449219 C 1972.769531 2143.5 1962.601562 2177.898438 1973.578125 2186.570312 C 1983.058594 2194.050781 1980.191406 2212.5 1968.050781 2222.058594 C 1953.5 2233.511719 1960.371094 2238.671875 1977.910156 2229.449219 C 1999.320312 2218.191406 2017.179688 2194.671875 2018.628906 2175.808594 C 2021.21875 2142.328125 2043.480469 2144.921875 2050.609375 2179.53125 C 2053.140625 2191.808594 2053.488281 2205.761719 2051.398438 2210.53125 C 2049.320312 2215.300781 2034.800781 2229.980469 2019.140625 2243.148438 C 1978.03125 2277.730469 1949.5 2277.28125 1919.019531 2241.570312 Z M 1431.578125 2004.03125 C 1433.480469 1999.691406 1449.570312 1989.691406 1467.328125 1981.820312 C 1485.089844 1973.941406 1500 1966.488281 1500.449219 1965.25 C 1500.980469 1964.039062 1495.828125 1946.851562 1489.179688 1927.101562 L 1477.089844 1891.199219 L 1452.261719 1886.140625 C 1438.601562 1883.351562 1421.609375 1878.53125 1414.5 1875.421875 C 1407.378906 1872.300781 1400.699219 1871.730469 1399.648438 1874.140625 C 1398.589844 1876.550781 1390.621094 1875.410156 1381.941406 1871.609375 C 1368.898438 1865.910156 1362.300781 1857 1344.101562 1820.558594 C 1321.339844 1774.96875 1318.808594 1760.210938 1324.398438 1705.441406 C 1329.660156 1653.921875 1326.679688 1644.519531 1308.039062 1653.890625 C 1297.101562 1659.390625 1292.121094 1656.820312 1276.261719 1637.480469 C 1261.429688 1619.398438 1250.300781 1618.769531 1242.929688 1635.609375 C 1238.398438 1645.96875 1253.730469 1680.679688 1268.601562 1693.71875 C 1277.808594 1701.800781 1282.78125 1747.410156 1276.101562 1762.671875 C 1273.910156 1767.671875 1273.769531 1778.96875 1275.78125 1787.789062 C 1280.378906 1807.960938 1271.480469 1818.050781 1255.339844 1810.988281 C 1240.011719 1804.28125 1233.320312 1782.839844 1239.300781 1759.601562 C 1244.761719 1738.339844 1236.03125 1701.410156 1223.71875 1693.679688 C 1213.421875 1687.21875 1202.671875 1644.148438 1208.160156 1631.351562 C 1210.328125 1626.398438 1212.738281 1613.238281 1213.601562 1602.140625 C 1214.46875 1591.03125 1216.738281 1580.871094 1218.648438 1579.539062 C 1223.851562 1575.949219 1238.46875 1583.46875 1245.089844 1593.140625 C 1248.640625 1598.339844 1257.789062 1603.238281 1268.609375 1605.730469 C 1282.851562 1609.019531 1285.851562 1608.230469 1283.96875 1601.679688 C 1282.679688 1597.199219 1272.96875 1586.769531 1262.390625 1578.5 C 1248.121094 1567.351562 1244.070312 1561.398438 1246.691406 1555.429688 C 1251.359375 1544.75 1276.230469 1545.640625 1283.890625 1556.761719 C 1286.941406 1561.191406 1298.609375 1568.820312 1309.808594 1573.730469 L 1330.191406 1582.640625 L 1319.25 1600.53125 C 1309.171875 1617.03125 1309.03125 1619.660156 1317.5 1634.390625 C 1325.738281 1648.730469 1327.410156 1649.808594 1333.808594 1644.960938 C 1337.871094 1641.890625 1346.460938 1641.980469 1353.761719 1645.179688 C 1369.710938 1652.160156 1371.78125 1663.769531 1365.890625 1713.148438 C 1360.929688 1754.808594 1367.160156 1785.5 1387.101562 1817.710938 C 1399.5 1837.738281 1402.511719 1839.960938 1428.53125 1848.351562 C 1460.480469 1858.648438 1464.808594 1857.351562 1548.410156 1812.320312 C 1575.308594 1797.828125 1598.148438 1788.679688 1602.589844 1790.621094 C 1616.140625 1796.550781 1621.820312 1811.71875 1613.890625 1820.769531 C 1609.941406 1825.28125 1604.960938 1828.210938 1602.820312 1827.28125 C 1597.289062 1824.859375 1518.859375 1864.261719 1515.941406 1870.921875 C 1514.601562 1873.980469 1518.320312 1890.441406 1524.199219 1907.511719 C 1532.191406 1930.679688 1538.03125 1939.921875 1547.238281 1943.949219 C 1560.949219 1949.949219 1568.941406 1945.339844 1584.160156 1922.648438 C 1590.738281 1912.839844 1601.308594 1905.53125 1615.371094 1901.050781 C 1640.328125 1893.109375 1644.488281 1894.160156 1645.628906 1908.679688 C 1646.558594 1920.421875 1637.808594 1929.789062 1621.578125 1934.46875 C 1611.269531 1937.429688 1602.601562 1952.511719 1609.46875 1955.519531 C 1617.46875 1959.019531 1607.058594 1973.359375 1592.851562 1978.410156 C 1576.769531 1984.128906 1544.390625 1984.480469 1532.011719 1979.058594 C 1523.621094 1975.390625 1514.769531 1980.980469 1509.351562 1993.378906 C 1507.789062 1996.941406 1495.359375 2005.410156 1481.730469 2012.199219 C 1461.628906 2022.210938 1454.21875 2023.351562 1442.53125 2018.230469 C 1431.570312 2013.441406 1428.949219 2010.039062 1431.578125 2004.03125 Z M 1371.640625 1973.941406 C 1372.78125 1971.320312 1375.839844 1969.609375 1407.019531 1954.121094 C 1423.199219 1946.078125 1430.839844 1945.058594 1439.050781 1949.859375 C 1453.859375 1958.511719 1450.011719 1968.839844 1427.230469 1981.558594 C 1410.46875 1990.910156 1405.578125 1991.261719 1389.300781 1984.300781 C 1379.019531 1979.898438 1371.070312 1975.238281 1371.640625 1973.941406 Z M 1301.671875 1930.960938 C 1306.460938 1920.03125 1350.570312 1913.808594 1364.089844 1922.160156 C 1370.980469 1926.421875 1372.398438 1931.488281 1369.410156 1941.179688 C 1364.011719 1958.738281 1360.148438 1959.421875 1326.5 1948.808594 C 1299.820312 1940.390625 1298.089844 1939.148438 1301.671875 1930.960938 Z M 1269.289062 1880 C 1268.878906 1877.078125 1272.050781 1870.140625 1276.359375 1864.578125 C 1283.820312 1854.929688 1285.339844 1855.050781 1310.019531 1867.320312 C 1357.269531 1890.808594 1341.648438 1916.648438 1293.058594 1895.378906 C 1280.398438 1889.839844 1269.710938 1882.921875 1269.289062 1880 Z M 2602.558594 2418.800781 C 2601.039062 2413.519531 2603.25 2400.859375 2607.480469 2390.660156 C 2614.738281 2373.121094 2615.921875 2372.359375 2629.109375 2376.660156 C 2648.578125 2383 2653.660156 2400.230469 2642.28125 2421.328125 C 2634.339844 2436.058594 2632.191406 2437.148438 2619.410156 2432.988281 C 2610.660156 2430.140625 2604.269531 2424.75 2602.558594 2418.800781 Z M 2699.390625 2448.140625 C 2700.449219 2445.730469 2703.28125 2444.621094 2705.691406 2445.671875 C 2708.101562 2446.730469 2709.210938 2449.558594 2708.160156 2451.96875 C 2707.101562 2454.390625 2704.269531 2455.488281 2701.859375 2454.441406 C 2699.449219 2453.390625 2698.339844 2450.550781 2699.390625 2448.140625 Z M 1622.898438 1966.660156 C 1622.101562 1961 1653.601562 1939.710938 1678.050781 1929.390625 C 1695.710938 1921.941406 1709.050781 1927.941406 1709.28125 1943.441406 C 1709.441406 1954.269531 1705.871094 1957.128906 1677.671875 1968.769531 C 1646.671875 1981.558594 1624.898438 1980.71875 1622.898438 1966.660156 Z M 2031.871094 2130.019531 C 2031.449219 2127.019531 2038.011719 2117 2046.449219 2107.738281 C 2062.398438 2090.269531 2062.410156 2090.21875 2062.621094 2045.699219 C 2062.660156 2036.519531 2061.039062 2024.789062 2059.03125 2019.628906 C 2057.011719 2014.46875 2056.671875 2004.21875 2058.289062 1996.851562 C 2060.859375 1985.050781 2064.460938 1982.78125 2088.289062 1977.910156 C 2123.398438 1970.738281 2140.269531 1976.230469 2135.089844 1993.128906 C 2132.191406 2002.601562 2126.648438 2006.5 2110.550781 2010.421875 C 2099.109375 2013.210938 2089 2017.230469 2088.070312 2019.339844 C 2087.140625 2021.460938 2090.121094 2034.371094 2094.679688 2048.03125 C 2102.019531 2070.019531 2101.820312 2075.351562 2092.921875 2094.488281 C 2082.371094 2117.148438 2058.519531 2137.898438 2043.789062 2137.21875 C 2033.300781 2136.738281 2032.78125 2136.421875 2031.871094 2130.019531 Z M 2589.230469 2347.339844 C 2588.210938 2340.160156 2609.488281 2305.410156 2619.941406 2297.179688 C 2629.871094 2289.359375 2644.109375 2296.128906 2645.140625 2309.171875 C 2646.351562 2324.558594 2634.738281 2347.960938 2622.058594 2355.691406 C 2610.488281 2362.738281 2590.699219 2357.710938 2589.230469 2347.339844 Z M 1539.371094 1883.171875 C 1538.128906 1874.46875 1552.480469 1865.71875 1586.351562 1854.5 C 1610.398438 1846.539062 1619.789062 1845.691406 1625.910156 1850.960938 C 1636.640625 1860.191406 1636.621094 1859.960938 1628.140625 1870.378906 C 1610.808594 1891.679688 1541.980469 1901.589844 1539.371094 1883.171875 Z M 1439.171875 1800.300781 C 1439.660156 1789.691406 1446.5 1786.238281 1469.808594 1784.859375 C 1481.070312 1784.191406 1500.199219 1778.371094 1512.328125 1771.929688 C 1529.601562 1762.75 1536.738281 1761.589844 1545.261719 1766.558594 C 1563.089844 1776.96875 1554.949219 1786.769531 1513.058594 1805.300781 C 1476.96875 1821.269531 1471.820312 1822.171875 1456.101562 1815.289062 C 1445.039062 1810.449219 1438.949219 1805.058594 1439.171875 1800.300781 Z M 2586.398438 2256.390625 C 2585.429688 2252.378906 2589.578125 2240.078125 2595.640625 2229.070312 C 2605.058594 2211.910156 2608.378906 2209.339844 2618.828125 2211.101562 C 2632.710938 2213.429688 2634.910156 2220.070312 2629.539062 2243.320312 C 2623.820312 2268.058594 2591.601562 2277.820312 2586.398438 2256.390625 Z M 2551.671875 2192.039062 C 2546.039062 2186.289062 2550.011719 2176.699219 2561.199219 2169.050781 C 2567.878906 2164.46875 2569.558594 2159.351562 2568.871094 2145.558594 C 2567.738281 2123.191406 2568.699219 2121.238281 2585.21875 2112.390625 C 2603.371094 2102.671875 2608.570312 2089.109375 2603.871094 2063.800781 C 2599.789062 2041.851562 2610.308594 2007.058594 2619.769531 2011.199219 C 2623.230469 2012.71875 2627.96875 2004.058594 2635.308594 1982.789062 C 2651.039062 1937.230469 2667.601562 1930.078125 2684.460938 1961.558594 C 2693.351562 1978.171875 2687.300781 1996.160156 2664.640625 2020.390625 C 2641.25 2045.421875 2638.539062 2056.519531 2650.121094 2079.898438 C 2660.289062 2100.421875 2660.261719 2100.730469 2647.929688 2108.78125 C 2624.769531 2123.890625 2603.898438 2150.550781 2597.941406 2172.621094 C 2590.070312 2201.761719 2569.589844 2210.359375 2551.671875 2192.039062 Z M 1641.640625 1697.898438 C 1629.058594 1675.449219 1614.910156 1666.988281 1593.738281 1669.261719 C 1586.210938 1670.058594 1571.75 1667.179688 1561.609375 1662.839844 C 1551.46875 1658.5 1541.089844 1656.398438 1538.550781 1658.160156 C 1530.820312 1663.5 1504.21875 1648.988281 1490.070312 1631.71875 C 1474.261719 1612.429688 1450.070312 1600.660156 1436.871094 1605.828125 C 1418.128906 1613.160156 1398.730469 1598.75 1378.351562 1562.339844 C 1356.488281 1523.28125 1348.789062 1497.070312 1345.359375 1450.039062 C 1342.671875 1413.261719 1349.179688 1399.789062 1368.089844 1402.96875 C 1382.671875 1405.429688 1394.539062 1420.421875 1390.039062 1430.691406 C 1384.671875 1442.980469 1389.539062 1487.628906 1399.941406 1521.410156 L 1409.328125 1551.910156 L 1454.558594 1571.75 C 1490.25 1587.398438 1502.578125 1594.910156 1513.019531 1607.359375 C 1524.171875 1620.671875 1528.800781 1623.308594 1542.570312 1624.210938 C 1551.550781 1624.800781 1564.28125 1627.640625 1570.859375 1630.511719 C 1577.441406 1633.390625 1590.359375 1635.261719 1599.578125 1634.660156 C 1615.871094 1633.609375 1635.261719 1642.421875 1661.78125 1662.941406 C 1668.691406 1668.28125 1672.320312 1668.699219 1674.210938 1664.378906 C 1677.921875 1655.890625 1660.601562 1633.230469 1645.269531 1626.519531 C 1628.738281 1619.289062 1619.691406 1603.800781 1627.421875 1595.96875 C 1634.988281 1588.289062 1658.671875 1598.289062 1676.078125 1616.5 C 1691.921875 1633.078125 1692.929688 1633.539062 1696.371094 1625.679688 C 1697.890625 1622.199219 1704.550781 1618.261719 1711.171875 1616.929688 C 1721.769531 1614.800781 1725.46875 1616.421875 1742.160156 1630.511719 C 1767.480469 1651.890625 1776.378906 1651.660156 1758.761719 1630.089844 C 1741.800781 1609.320312 1740.148438 1602.261719 1750.960938 1596.820312 C 1761.949219 1591.300781 1771.808594 1596.570312 1780.441406 1612.558594 C 1784.398438 1619.910156 1791.621094 1627.71875 1796.488281 1629.921875 C 1822.710938 1641.738281 1821.53125 1679.949219 1795.28125 1668.871094 C 1785.570312 1664.78125 1779.089844 1665.871094 1769.449219 1673.230469 C 1754.058594 1684.980469 1743.289062 1683.488281 1734.070312 1668.359375 C 1730.320312 1662.210938 1724.429688 1655.941406 1720.980469 1654.429688 C 1715.890625 1652.199219 1715.410156 1653.800781 1718.449219 1662.871094 C 1723.679688 1678.488281 1719.71875 1684.71875 1700.921875 1690.488281 C 1684.738281 1695.441406 1684.671875 1695.550781 1689.03125 1708.558594 C 1693.351562 1721.46875 1693.261719 1721.671875 1682.21875 1724.101562 C 1665.46875 1727.828125 1654.371094 1720.660156 1641.609375 1697.878906 Z M 2077.171875 1885.160156 C 2073.21875 1875.078125 2081.878906 1870.191406 2104.75 1869.570312 C 2143.058594 1868.539062 2158.679688 1888.179688 2131.578125 1903.308594 C 2125 1906.980469 2116.21875 1905.730469 2100.609375 1898.898438 C 2088.621094 1893.648438 2078.070312 1887.46875 2077.171875 1885.160156 Z M 1203 1478.621094 C 1201.800781 1474.46875 1203.128906 1458.011719 1205.941406 1442.050781 C 1208.75 1426.078125 1211.511719 1402.390625 1212.070312 1389.410156 C 1213.328125 1360.070312 1220.550781 1351.890625 1238.320312 1359.671875 C 1253.519531 1366.320312 1253.890625 1369.980469 1244.730469 1422.949219 C 1241.53125 1441.421875 1239.851562 1459.179688 1240.980469 1462.410156 C 1244.371094 1472.019531 1236.320312 1485.101562 1225.390625 1487.738281 C 1212.410156 1490.871094 1205.738281 1488.148438 1203 1478.621094 Z M 2509.039062 2031.941406 C 2508.75 2029.660156 2514.621094 2018.710938 2522.128906 2007.640625 C 2529.628906 1996.558594 2543.699219 1972.578125 2553.398438 1954.351562 C 2569.429688 1924.25 2572.191406 1921.269531 2583.488281 1921.820312 C 2591.539062 1922.21875 2598.28125 1925.429688 2602.628906 1930.949219 C 2608.550781 1938.480469 2607.738281 1942.21875 2595.648438 1963.148438 C 2567.539062 2011.820312 2552.820312 2030.988281 2539.019531 2036.890625 C 2525.359375 2042.730469 2510.089844 2040.210938 2509.039062 2031.941406 Z M 1463.421875 1537.480469 C 1464.28125 1535.519531 1473.679688 1530.828125 1484.328125 1527.050781 C 1497.390625 1522.410156 1500.839844 1522.339844 1494.960938 1526.808594 C 1475.851562 1541.359375 1459.269531 1546.96875 1463.421875 1537.480469 Z M 2512.078125 1909.601562 C 2531.96875 1864.148438 2537.050781 1860.808594 2559.679688 1878.308594 C 2569.949219 1886.261719 2569.890625 1886.710938 2554.300781 1916.980469 C 2535.539062 1953.378906 2522.96875 1963.621094 2506.078125 1956.230469 L 2493.988281 1950.941406 Z M 1818.320312 1618.46875 C 1804.851562 1601.390625 1805.371094 1592.230469 1820.070312 1588 C 1827.238281 1585.941406 1832.398438 1588.070312 1843.878906 1597.808594 C 1860.75 1612.121094 1865.640625 1624.429688 1858.578125 1634.769531 C 1851.609375 1644.949219 1833.378906 1637.570312 1818.320312 1618.46875 Z M 2712.738281 1999.980469 C 2713.738281 1997.710938 2717.050781 1995.5 2720.121094 1995.058594 C 2723.179688 1994.628906 2724.339844 1997.339844 2722.691406 2001.101562 C 2721.050781 2004.859375 2717.730469 2007.070312 2715.320312 2006.019531 C 2712.910156 2004.960938 2711.75 2002.238281 2712.738281 1999.980469 Z M 1872.25 1602.640625 C 1854.46875 1581.230469 1853.960938 1573.21875 1870.601562 1576.570312 C 1891.839844 1580.851562 1899.828125 1584.828125 1909.199219 1595.769531 C 1919.238281 1607.5 1917.441406 1619.269531 1904.851562 1624.199219 C 1894.910156 1628.089844 1891.519531 1625.839844 1872.25 1602.640625 Z M 2359.269531 1774.789062 C 2355.089844 1767.46875 2355.449219 1763.589844 2360.628906 1760.460938 C 2364.539062 1758.089844 2383.96875 1747.070312 2403.808594 1735.960938 C 2445.980469 1712.359375 2452.011719 1703.851562 2435.019531 1691.96875 C 2425.109375 1685.050781 2423.558594 1680.148438 2426.039062 1663.660156 C 2429.660156 1639.660156 2451.449219 1601.320312 2463.449219 1597.871094 C 2477.628906 1593.78125 2477.75 1584.980469 2463.910156 1563.238281 C 2453.378906 1546.710938 2451.890625 1539.988281 2456.441406 1529.601562 C 2461.609375 1517.769531 2463.628906 1517.140625 2479.128906 1522.441406 C 2493.101562 1527.230469 2497.070312 1531.300781 2501.351562 1545.21875 C 2506.371094 1561.550781 2508.058594 1562.839844 2547.46875 1580.078125 L 2588.390625 1597.988281 L 2582.058594 1618.71875 C 2578.589844 1630.121094 2576.21875 1642.699219 2576.808594 1646.671875 C 2577.421875 1650.78125 2574.378906 1655.648438 2569.789062 1657.960938 C 2560.601562 1662.578125 2537.398438 1654.070312 2536.199219 1645.648438 C 2535.769531 1642.578125 2525.671875 1635.808594 2513.761719 1630.601562 L 2492.101562 1621.128906 L 2479.808594 1649.199219 L 2467.53125 1677.28125 L 2488.121094 1689.878906 C 2506.128906 1700.898438 2508.160156 1703.769531 2504.25 1712.691406 C 2501.800781 1718.300781 2489.140625 1728.410156 2476.121094 1735.140625 C 2463.109375 1741.871094 2445.988281 1752.789062 2438.089844 1759.410156 C 2398.339844 1792.671875 2372.390625 1797.738281 2359.269531 1774.789062 Z M 1412.441406 1350.589844 C 1403.601562 1339.039062 1399.800781 1327.839844 1400.628906 1315.820312 C 1402.539062 1288.558594 1418.589844 1254.820312 1437.949219 1237.421875 C 1461.828125 1215.949219 1468.371094 1197.851562 1466.578125 1158.128906 C 1464.808594 1118.789062 1466.511719 1116.550781 1505.179688 1107 C 1529.839844 1100.898438 1546.980469 1104.578125 1566.429688 1120.121094 C 1578.621094 1129.859375 1571.160156 1143.148438 1552.828125 1144.339844 C 1524.75 1146.160156 1520.289062 1151.050781 1521.050781 1179.171875 C 1521.449219 1193.769531 1517.410156 1216.28125 1511.429688 1232.851562 C 1502.648438 1257.148438 1498.179688 1263.628906 1481.261719 1276.449219 C 1457.558594 1294.410156 1450.199219 1309.410156 1455.300781 1329.300781 C 1459.550781 1345.839844 1456.199219 1356.949219 1444.058594 1366.5 C 1433.820312 1374.558594 1428.890625 1372.089844 1412.441406 1350.589844 Z M 1284.058594 1202.699219 C 1274.410156 1173.890625 1291.109375 1145.730469 1331.800781 1122.210938 C 1357.910156 1107.109375 1366.039062 1091.800781 1351.359375 1085.378906 C 1345.710938 1082.898438 1339.398438 1075.851562 1337.339844 1069.710938 C 1334.058594 1059.890625 1336.039062 1054.570312 1353.621094 1025.921875 C 1384.359375 975.839844 1383.648438 978.601562 1369.140625 965.339844 C 1357.808594 954.988281 1356.828125 951.230469 1361.710938 936.859375 C 1368.699219 916.328125 1385.738281 901.550781 1421.839844 884.730469 C 1444.121094 874.339844 1452.851562 872.890625 1465.058594 877.53125 C 1487.488281 886.039062 1482.28125 896.730469 1446.808594 914.960938 C 1404.660156 936.621094 1393.039062 952.179688 1412.601562 960.730469 C 1431.378906 968.949219 1423.941406 993.601562 1384.410156 1054.140625 L 1374.460938 1069.371094 L 1396.949219 1079.21875 C 1412.878906 1086.191406 1418.679688 1090.78125 1416.859375 1094.960938 C 1415.429688 1098.199219 1393.898438 1117.890625 1368.988281 1138.699219 C 1322.929688 1177.199219 1314.261719 1187.890625 1319.078125 1200.230469 C 1320.570312 1204.039062 1318.671875 1210.730469 1314.839844 1215.089844 C 1306.019531 1225.148438 1289.320312 1218.421875 1284.050781 1202.699219 Z M 2017.199219 1390.378906 C 2033.78125 1357.898438 2037.988281 1345.398438 2039.410156 1324.378906 C 2040.371094 1310.128906 2039.570312 1297.769531 2037.640625 1296.921875 C 2031.671875 1294.308594 2038.941406 1283.148438 2064.628906 1255.5 C 2096.808594 1220.871094 2120.089844 1170.261719 2118.230469 1138.980469 C 2117.539062 1127.421875 2118.558594 1114.351562 2120.488281 1109.949219 C 2126.421875 1096.390625 2113.339844 1062.261719 2097.121094 1048.980469 C 2086.140625 1039.988281 2083.089844 1034.320312 2085.839844 1028.03125 C 2089.230469 1020.289062 2092.699219 1020.75 2119.640625 1032.539062 C 2149.28125 1045.511719 2149.761719 1045.988281 2156.828125 1069.699219 C 2160.769531 1082.921875 2162.621094 1096.941406 2160.941406 1100.871094 C 2157.101562 1110.078125 2161.609375 1157.960938 2166.609375 1160.148438 C 2170.96875 1162.050781 2121.570312 1268.910156 2111.890625 1278.5 C 2108.378906 1281.988281 2103.738281 1284.070312 2101.589844 1283.128906 C 2094.738281 1280.140625 2084.339844 1311.058594 2082.980469 1338.410156 C 2081.890625 1360.589844 2078.410156 1371.128906 2061.238281 1404.261719 C 2039.058594 1447.058594 2037.429688 1448.019531 2008.460938 1435.519531 L 1996.730469 1430.46875 Z M 2093.101562 1400.628906 C 2092.648438 1394.949219 2095.730469 1376.960938 2099.949219 1360.628906 C 2104.171875 1344.308594 2106.070312 1328.710938 2104.179688 1325.980469 C 2098.890625 1318.320312 2117 1314.878906 2127.601562 1321.53125 C 2132.570312 1324.640625 2136.75 1330.769531 2136.898438 1335.140625 C 2137.71875 1358.910156 2134.25 1380.941406 2126.890625 1398.640625 C 2119.230469 1417.03125 2117.699219 1418.238281 2106.269531 1414.730469 C 2097.828125 1412.148438 2093.648438 1407.679688 2093.101562 1400.628906 Z M 2641.699219 1613.820312 C 2641.238281 1608.070312 2642.53125 1599.570312 2644.558594 1594.929688 C 2646.589844 1590.289062 2643.03125 1571.570312 2636.660156 1553.320312 C 2622.25 1512.070312 2624.441406 1504.320312 2646.699219 1517.839844 C 2665.46875 1529.25 2692.199219 1578.011719 2689.261719 1595.5 C 2686.328125 1612.929688 2658.398438 1631.230469 2644.199219 1625.019531 C 2643.28125 1624.621094 2642.148438 1619.578125 2641.699219 1613.820312 Z M 1866.398438 1225.199219 C 1869.320312 1218.53125 1850.441406 1173.230469 1843.460938 1170.171875 C 1841.058594 1169.121094 1840.390625 1165.300781 1841.96875 1161.691406 C 1846.191406 1152.050781 1833.710938 1148.511719 1812.628906 1153.351562 C 1781.570312 1160.488281 1766.589844 1157.03125 1738.019531 1136.140625 C 1706.710938 1113.238281 1694.789062 1099.601562 1697.109375 1089.328125 C 1700.589844 1073.929688 1719.300781 1077.96875 1752.101562 1101.210938 C 1781.171875 1121.808594 1783.019531 1122.550781 1795.230469 1118.390625 C 1813.960938 1112.019531 1853.691406 1110.828125 1859.410156 1116.480469 C 1862.140625 1119.171875 1864.941406 1131.140625 1865.648438 1143.070312 C 1866.359375 1155.011719 1869.789062 1166.03125 1873.269531 1167.550781 C 1889.449219 1174.628906 1903.429688 1198.480469 1902.691406 1217.738281 C 1901.980469 1236.300781 1901.269531 1237.648438 1891.890625 1238.398438 C 1877.390625 1239.550781 1863.308594 1232.261719 1866.398438 1225.199219 Z M 2554.570312 1389.96875 C 2552.851562 1379.800781 2548.261719 1374.128906 2538.070312 1369.621094 C 2514.589844 1359.199219 2513.519531 1353.949219 2530.441406 1331.941406 C 2538.550781 1321.390625 2547.96875 1312.25 2551.359375 1311.628906 C 2568.511719 1308.480469 2578.648438 1327.820312 2568 1343.339844 C 2562.058594 1352 2562.578125 1354.328125 2571.300781 1358.210938 C 2585.601562 1364.589844 2588.570312 1370.71875 2586.929688 1390.550781 C 2584.929688 1414.601562 2583.820312 1415.828125 2569.601562 1409.609375 C 2560.949219 1405.820312 2556.199219 1399.621094 2554.570312 1389.96875 Z M 1425.390625 829.898438 C 1424.878906 826.28125 1434.21875 821.019531 1447.488281 817.460938 C 1460.140625 814.070312 1482.300781 806.441406 1496.730469 800.511719 C 1526.21875 788.378906 1529.949219 788.78125 1535.261719 804.640625 C 1540.480469 820.238281 1537.601562 824.410156 1513.929688 835.488281 C 1479.230469 851.730469 1428.03125 848.488281 1425.390625 829.898438 Z M 2462.398438 1276.769531 C 2457.558594 1264.390625 2458.300781 1256.839844 2466.140625 1238.929688 C 2477.191406 1213.671875 2471.671875 1210.648438 2450.828125 1230.558594 C 2435.671875 1245.039062 2425.449219 1245.589844 2413.769531 1232.550781 C 2405.601562 1223.429688 2406.03125 1221.109375 2423.519531 1180 C 2433.601562 1156.339844 2442.410156 1131.359375 2443.109375 1124.488281 C 2444.378906 1112.191406 2444.320312 1112.148438 2439.550781 1121.898438 C 2426.371094 1148.75 2372.03125 1157.671875 2362.949219 1134.460938 C 2360.800781 1128.96875 2357.078125 1121.808594 2354.679688 1118.539062 C 2351.730469 1114.519531 2356.230469 1095.71875 2368.570312 1060.539062 C 2386.441406 1009.578125 2386.609375 1008.339844 2376.441406 1002.390625 C 2359.558594 992.511719 2319.339844 953.929688 2316.828125 945.199219 C 2315.070312 939.109375 2317.011719 936.160156 2324.710938 933.140625 C 2333.710938 929.621094 2337.609375 931.121094 2357.851562 945.878906 C 2370.46875 955.078125 2382.121094 964.949219 2383.730469 967.820312 C 2385.351562 970.691406 2397.480469 979.089844 2410.679688 986.480469 C 2423.890625 993.871094 2436.171875 1002.050781 2437.96875 1004.660156 C 2439.78125 1007.269531 2437.539062 1017.890625 2433 1028.261719 C 2418.621094 1061.128906 2412.101562 1090.03125 2418.449219 1092.800781 C 2421.699219 1094.230469 2435.621094 1086.089844 2449.371094 1074.71875 L 2474.378906 1054.039062 L 2492.238281 1063.449219 L 2510.089844 1072.859375 L 2500.898438 1094.941406 C 2489.019531 1123.449219 2479.359375 1161.238281 2483.488281 1163.039062 C 2485.261719 1163.808594 2493.128906 1162.449219 2500.980469 1160 C 2510.191406 1157.128906 2519.78125 1158.089844 2528.011719 1162.691406 L 2540.769531 1169.828125 L 2519.839844 1218.121094 C 2507.640625 1245.988281 2499.320312 1271.039062 2499.96875 1277.441406 C 2501.390625 1291.488281 2489.300781 1301.359375 2477.269531 1296.089844 C 2472.460938 1293.988281 2465.800781 1285.308594 2462.480469 1276.800781 Z M 1633.96875 894.160156 C 1623.5 883.621094 1624.351562 874.46875 1636.289062 869.109375 C 1640.199219 867.351562 1656.640625 855.300781 1672.820312 842.320312 C 1707.730469 814.320312 1734.769531 806.96875 1755.039062 819.988281 C 1770.019531 829.601562 1773.878906 835.820312 1788.449219 873.710938 C 1797.980469 898.5 1807.359375 906.648438 1812.589844 894.699219 C 1813.691406 892.179688 1812.320312 880.550781 1809.53125 868.871094 C 1802.921875 841.140625 1801.53125 826 1803.328125 801.5 C 1804.691406 782.929688 1805.921875 780.730469 1819.390625 772.660156 C 1832.390625 764.878906 1836.550781 765.050781 1857.578125 774.25 C 1880.238281 784.171875 1881.730469 784.101562 1895.171875 772.429688 C 1906.28125 762.769531 1911.699219 761.390625 1921.519531 765.679688 C 1943.019531 775.089844 1953.128906 788.351562 1947.898438 800.289062 C 1945.300781 806.230469 1940.671875 811.449219 1937.601562 811.890625 C 1934.539062 812.320312 1929.101562 819.371094 1925.519531 827.558594 C 1919.578125 841.140625 1917.539062 842.101562 1902.191406 838.550781 C 1892.929688 836.421875 1878.109375 830.011719 1869.25 824.320312 C 1856.71875 816.269531 1852.519531 815.378906 1850.371094 820.308594 C 1845.21875 832.070312 1846.320312 851.628906 1853.878906 883.050781 C 1865.910156 933.058594 1851.988281 948.988281 1804.679688 939.339844 C 1776.730469 933.628906 1771.191406 927.410156 1755.269531 883.800781 C 1742.53125 848.898438 1728.640625 848.558594 1692.699219 882.269531 C 1671.941406 901.738281 1655.679688 910.761719 1648.53125 906.769531 C 1646.011719 905.359375 1639.449219 899.691406 1633.96875 894.171875 Z M 1545.578125 766.398438 C 1543.800781 760.191406 1546.648438 756.460938 1557.71875 750.539062 C 1574.070312 741.769531 1592.261719 748.71875 1594.609375 764.621094 C 1597.78125 786.019531 1551.710938 787.699219 1545.578125 766.398438 Z M 2072.660156 968.640625 C 2075.378906 962.449219 2089.078125 959.121094 2097.210938 962.671875 C 2108.519531 967.621094 2101.878906 978.570312 2088.78125 976.578125 C 2073.96875 974.328125 2070.851562 972.789062 2072.660156 968.640625 Z M 1657.570312 713.320312 C 1654.628906 708.960938 1655.839844 703.390625 1661.230469 696.410156 C 1668.148438 687.46875 1671.179688 687.058594 1682.75 693.519531 C 1698.578125 702.351562 1697.941406 718.070312 1681.601562 721.699219 C 1669.5 724.398438 1663.671875 722.359375 1657.570312 713.320312 Z M 1975.46875 788 C 1961.078125 775.308594 1964.078125 762.71875 1981.71875 761.789062 C 2000.910156 760.78125 2007.328125 763.769531 2016.429688 777.949219 C 2027.109375 794.609375 2023.441406 803.808594 2006.441406 802.96875 C 1991.429688 802.230469 1991.808594 802.421875 1975.46875 788 Z M 2039.050781 764.769531 C 2033.351562 747.75 2044.761719 743.898438 2069.191406 754.589844 C 2092.46875 764.78125 2100.628906 778.210938 2089.050781 787.328125 C 2077.441406 796.46875 2044.71875 781.71875 2039.050781 764.769531 Z M 2123.648438 776.839844 C 2115.851562 755.570312 2124.289062 749.980469 2148.320312 760.488281 C 2174.828125 772.101562 2179.070312 800.929688 2154.089844 799.699219 C 2134.429688 798.730469 2130.628906 795.878906 2123.648438 776.839844 "/>
<path fill-rule="nonzero" fill="rgb(87.109375%, 37.255859%, 4.704285%)" fill-opacity="1" d="M 1995.140625 1567.46875 C 2001.238281 1583.050781 2032.410156 1589.828125 2050.699219 1606.769531 C 2069 1623.710938 2074.421875 1650.808594 2062.898438 1681.980469 C 2051.378906 1713.148438 2022.921875 1748.378906 2019.53125 1774.128906 C 2016.140625 1799.878906 2037.828125 1816.140625 2067.640625 1815.46875 C 2097.460938 1814.789062 2135.398438 1797.171875 2152.339844 1770.75 C 2169.28125 1744.320312 2165.210938 1709.078125 2174.699219 1666.398438 C 2184.191406 1623.710938 2207.230469 1573.570312 2211.96875 1539.691406 C 2216.710938 1505.808594 2203.160156 1488.191406 2178.769531 1494.960938 C 2154.371094 1501.738281 2119.140625 1532.910156 2092.03125 1538.328125 C 2064.929688 1543.75 2045.960938 1523.421875 2026.988281 1525.460938 C 2008.011719 1527.488281 1989.039062 1551.878906 1995.140625 1567.46875 "/>
</svg>
